<mxfile host="app.diagrams.net" agent="Mozilla/5.0 (Windows NT 10.0; Win64; x64) AppleWebKit/537.36 (KHTML, like Gecko) Chrome/128.0.0.0 Safari/537.36" version="24.7.12">
  <diagram name="Page-1" id="U5ugXZlED-HPMg3AAy_v">
    <mxGraphModel dx="1195" dy="655" grid="1" gridSize="10" guides="1" tooltips="1" connect="1" arrows="1" fold="1" page="1" pageScale="1" pageWidth="827" pageHeight="1169" math="0" shadow="0">
      <root>
        <mxCell id="0" />
        <mxCell id="1" parent="0" />
        <mxCell id="qYTeN8mtzP5acfvbm5ag-1" value="«Système»&lt;br&gt;&lt;b&gt;Vente en ligne&lt;/b&gt;" style="html=1;whiteSpace=wrap;" vertex="1" parent="1">
          <mxGeometry x="320" y="290" width="180" height="150" as="geometry" />
        </mxCell>
        <mxCell id="qYTeN8mtzP5acfvbm5ag-2" value="Client" style="shape=umlActor;verticalLabelPosition=bottom;verticalAlign=top;html=1;" vertex="1" parent="1">
          <mxGeometry x="240" y="110" width="30" height="60" as="geometry" />
        </mxCell>
        <mxCell id="qYTeN8mtzP5acfvbm5ag-5" value="" style="shape=image;verticalLabelPosition=bottom;labelBackgroundColor=default;verticalAlign=top;aspect=fixed;imageAspect=0;image=data:image/jpeg,/9j/4AAQSkZJRgABAQAAAQABAAD/2wCEAAkGBw8REBASDxMRFRUXFhYZFhgQFRUYFRIXFRUWFxcWFRYYHSggGBslGxUXITUhJSsrLy4uGB8zODMtNzQtLisBCgoKDg0OGhAQGy0mICUuLS0tNS8tLS8vKy0vLS0tLS0tLy0tKy0tKy0tLS0tLS8tLS0tLS0tLS0tLS0tLS0tLf/AABEIAOEA4QMBEQACEQEDEQH/xAAcAAEAAgMBAQEAAAAAAAAAAAAABQYBAwQHAgj/xABCEAABAwICBgcGAggFBQAAAAABAAIDBBEFIQYSMUFRYRMiMnGBkaFCUmJyscEH8BQjM0OCwtHhFaKy0vFTY3ODkv/EABsBAQADAQEBAQAAAAAAAAAAAAACAwQBBQYH/8QANREBAAIBAwIDBgUDAwUAAAAAAAECAwQRIRIxBUFREzJhcaHRIoGRwfAjseEUM1IkQoKS8f/aAAwDAQACEQMRAD8A9xQEBAQEBAQEBAQEBAQEBAQEBAQEBAQEBAQEBAQEBAQEBAQEBAQEBAQEBAQEBAQEBAQEBAQEBAQEBAQEBAQEBAQEBAQEBAQEBAQEBAQEBAQEBAQEBAQEBAQEBAQEEdimNU9OP1r+tua3Nx8N3ebLNn1eLD708+nmha9a91Vr9N5TfoWNYOL+s7yFgPVeTl8XvPuV2+ai2efJyR4nisubDOfljGr56tlVXPrr+7v+n+EerJPZJYd/i2sek6W1sr9HtuFfT/X+e/0WU9p5u8T17doee9oP0U/aa2nMxP6R+yzezogx8g2mYRzbf/SVbTxGYnbLXZ3r9UxT1LJBdjgRy3d43L0ceWuSN6zulE7tqsdEBAQEBAQEBAQEBAQEBAQEBAQEBBUMe0ne5/QUV3OORe0XN+EY3/N/yvH1WvtNvZYOZ9ft92e+Xnpq58M0NkedereRfMtabvPzPO/uv3qrB4Va34s0/f8AOXK4Jnmybth1Ft6JjufWk+7lu/6XS+kT9fus/BRw1GnFOOxHK7mbNH1v6Km/i2KPdiZRnUVaabTfXkazoLXBz6Thna2r3+Srjxbq7U+v+HK59522STNJG+1GfBwP1AVlfE486rOt1R4vTSCzsuUgy88wtFdZgycW+qXVEsuwqO4fA4xu3Fhu0943hJ0lN+vFO0/DsdMeTrp5X9mUAO4t7Lu7geR9Vox2t2vHP0l2HQrXRAQEBAQEBAQEBAQEBAQEBAQEEJj5mmH6PTmxcR0jtzGnb5/deTqtRfLm/wBLh/8AKfT4fOUb1ma7QxT01Jh0Os4gHYXHN8h4NH2H91opjwaLHvP6+coRFccKpjOls812xXiZ8J6573bu4eZXk6nxLJk4pxH1Z755nsrxK85SwgMm1HxP3B4v3Ou0/VWY+7tZ2lalc0iDdS1kkRvG4jluPeFbizXxzvWXYtMLHhuNsks19mu/yu7juPJexp9bXJxbiVtbxKWW5MQEBAQEBAQEBAQEBAQEBAQEHxKSAdUXO7v58lXkm0Vnp7+Qjq+sio4S9+ZJ/ikefz4BZIjHosUzPMzzPraf5+kI3vFY3l5rimJS1EhklNzuA7LRwaF8/nz3zW6rf/GC95tO8uRUosIBKDoGE1ErTqQyuBGRDHW87WV+PBltO9az+iUUtPaE1h7JxE3p45GOHVPSNIvbYQTtuLeN1ffFenvRsvrvty33UHRHGEHRhmk8kLyya7475e+wcjvHIq7T+J3w26cnNfrH3SrlmOJXSkqo5WB8bg5p3j6HgeS+gx5a5K9VJ3hfExPZuVjogICAgICAgICAgICAgICDDiACTsXJmIjeR55pnWmXUd7IfZo4DVdn3my+Ly62dXqLW/7Yjj5b/uo1HuwrK6xiOJPA8CmqndTqsB6z3bByHvHl9Fq02kvnnjt6rKY5u9AwnRymp7FrdZ/vyWLvDc3wXv4NFiw9o3n1lsrirVLrWsYe0EEEAg7QdhXJiJjaRUcdw8QvBb2XXt8JG0Lw9Zp4xW3r2lReuyMWNBi6COxKOxDuOR7x/b6LLnptO6Fn1g2LyUz9ZmbT2mnY4fY81PS6q+nvvHbzgpeay9KoKxk0bZIzdp8xxB4EL6vDlrlpF69pbImJjeHQrXRAQEBAQEBAQEBAQEBAQROkVVqxho2vy8Bt+w8V4fj2p9lg9nHe3H5eYo2kI/UOPulrvJwB9CV8rop/qxHruqzxvRBXXpsCa0YwJ1VJd1xE09c7yfdbz+g8Ft0eknPbn3Y7/Zbix9c/B6dTwMja1jGhrQLADYF9JSkUjprHDdEbcQ2KTogIK1p5WiGnje4XHStGW2xa+9vJYPEI/px81Oadqq5T1DJGhzCCDw+h4FeNsqid2xddfEsYcCCo2rFo2lGUNKwtJB/5WG1ZrO0q5TWiWL9BNqPP6uQgHg12wO+x/svQ8N1XscnTPuz/AHW4r9M7PRl9O1iAgICAgICAgICAgICAgqmkU2tOR7oA88z9V8T47l69V0/8YiP3ELVxa8b2e80jzC8rFbovFvRG0bxMKxg8D53RxN7ZOrnu4k8gM/Ar3q4pvkitfN51azM7PYsNoWQRMijGTR4uO9x5kr6jDiripFK+T0a1isbQ6lakICAgo34mVDXCGDbteeXst+rvJeP4pl26aR82TU27Q8+jklgdrRuNt/A8nD7rza23ZotsnaDSCJ9hJ1Hc+yfHd4+amti8T3S4dlceiJtU8LXix8DvCjakWjaXJjdGz0jm8xxH3Cy3wzCExs9G0WxDp6Zjibub1Hcy3ee8WPivp9Dm9rhiZ7xxLZit1VS62LBAQEBAQEBAQEBAQEBBRsSk1ppT8bh/8kj7L8+8RnfVZJ+Lm7musezm7q0HwfVqqqcjq2AZ3vuX+ItbucvrvBIjJT2k944/n0VUx7XmV4XvrxAQEHxPK1jXPeQGtBJJ2ADMlRtaKxvLkzs8fxrETUTySm9ieqD7LRk0eWfeSvl9RlnNkm/82eZkv1W3cKp2Qc01IDm3I+isreY7jVBVTwHquIHDa0+ByVsTE9kotMdkvS6SjZKzxZ/tP9V1OMnql6XEIZOw9pPA5O8jmiyJiVo0PkAfKziA7xabH6jyXo+HTta1fzX4Z7wtK9VeICAgICAgICAgICAgIPPqo/rqgcJZPVxd/MvgvE69Oqv80Gu6wi26LAdAebz9l9l4FERpd/jKUJhey6ICAg88030jEpNPCbsB67hseR7I+EHzPr4mv1fXPs6dvP4sWoy7/hhUV5jKwgI4wUHNLSNOzL6KcXmO7u7klp3DaL9ysi0SbrT+G9dJ+nRML3FrmvFibjJpdlfZ2Vt0U/1fylo09p69nry9pvEBAQEBAQEBAQEBAQEFDx+LUrZhue1jx5ah9Wr4/wAbxdOfq9Vc93JdeLsbrDonWgF0TjtOs3mbWI9AfNfSeBamI6sNvPmP3hKsrMvpkhBqqqmOJpfI5rWjaXGwUbXrSN7TtDkzERvLz/SfTB0wMVNdsZyc/Y544D3W+p5b/F1Wvm/4cfEevqxZdR1cVVFeYyl10LoMXQLo4ICCd0DgBr4nWzAkP+Qj7rd4fM+2iPhK/T/7kPV19A9IQEBAQEBAQEBAQEBBrmdYX4W8t/ooZJ2jcV3TSk6sU49g6rvkksAfB1vMryPGtP14euPL+yF481buvkUGA4jMZHluXYmYneBL02ktQ0Wdqv5uGfmNq9jD41qKRtba3z7pdcoLFdP69jiwRws5gOcSOLSTb0XqV8TtkrvXaGa+e8TsgqnFZak60sjnn4j2e5oyHgsOW+S8/jndmte1u7TdVICDCAgIF10LoMXQWDQjEYKepL5yWgsLQbdVpLmm7uHZ281s0OSmPJvf02X6e9a23l6ox4IBBBBzBGYI4gr6CJ3ek+l0EBAQEBAQEBAQEBBhzbgg71y0bxtI442NkjfFJnkWOHEEWv5LNj2yUnHfy4lxR8QpHQyOjdu2H3huK+M1emtp8s45/L4wqmNnNdZnGLruzjlxCiZM2zsiOyd7T/TkrsOWcc7wjekWhU6mnkhfZ2R3EbCOI4r16XrkrvDHasxO0t0NYPa8wuTj9EXSHA7PRV7OF0BAQYXQQEHy94G0gLsRMiSwLTGakIDLyR3zY42HMsPsn05LZps+TDx5en2XY81qfJ6lgGkFNWM1oHZjtMdk9nzDhzGS9rFmrkjerfTJW8cJVWrBAQEBAQEBAQEBAQR9deN4lbs2OH5/OQWLPvjvGWPlLktGJ0UdXEHMI1hfVdwINi13iLciFVrNJTWYt69/Kf2cmN4UmeNzHFrwQ4bQdy+QyY7Y7TW0bTCmeGq6jsMXRxoq6dkjdV4uN3EHiDuVuPJbHO9UbRFu6sYjhcsVyAXs4t7Q+Zv3HovTw6imTjtLPbHMOCKoHsm3otE19VTrZWu3gH0Vc44G5tY3fcKPRLja2Vp2EKO0jLngbSB3psNL6to2Z9ylFJHPJVuOzLuU4pA5yb7VMEG2kqpIntkie5j27HNNiP7clKtprO8OxMxO8PTdFfxCjl1Yq3VjfsEgyjf83uH07ti9PBrItxfiW3FqYniy+Arc1soCAgICAgICAgIPl7AQQdhUbVi0bSKTiVdLhtVrWLoJc3NHvNsC5u4Otbvz5EeNbJfR5fWs/wA/VTMzSfgsFVSU9dE17HDZ1Xt2jk4fYrTn0+DXY+qJ58p84+ayYi0KfieGywOtIMtzh2XeO48l81qdHk09trxx6+Sm0TDhusqJddcYuhujK/BoZbm2q7izK/eNhWrFqr047wrtSJQFXgE7M2WePgyPi0/a6349Xjv34VTSYRjy9ps7WB4G4PkVojaeyD5LjxPmpbAHEbCU2H2JncfNc6YcfQqTvAXOk2fYqRzXOk2fYlad65tLj6XAQWbRbTSoo7MdeWH3HHNg/wC247PlOXdtWrDqrY+J5hfiz2px5PWcHxmCsj16d4PEHtMPB7d333L1MeSuSN6y30vW8bw+psTbEQKkdGCQGyfunE5AF37s8nZZgAldm+3d2bbd3eCppMoCAgICAgICDhxnCoqqIxyjLaCNrHbnBU58Fc1OmyNqxaNpUOGOrw+XUJt7jh+zlbwI4jhtF/FfNZqZ9Dk6q/4lRzSVuwzGoKpvRyhocdrH5h3ynf3bV6+m1+HV16LxtPpPn8l1bxbhE4xos5t3U3Wb7hPWHyk9r6968/V+D2r+LDzHp5/khbH6Ky8EEgggjaCLEd43LxZrMTtPdS+bps4xdd2GLo41zRMeLPa1w+IA/VTra1fdknaUZUYFTu2BzPlOXkbrRXV5K9+UJpDqw38OKmcgteGR+9Kw3PDVbfrd+QXraXHkzRvNdoSrp7Sg8Z0UraV+rLESNzmEFr+bd/ha6Zv6Vtr8f2V2xWr3Q0rHN7YLfmBH1UYmJ7K2+uoJ4CwTxyRlzQ5vSNI1mneL/kKdqWr3h2YmO7lXHGWvI2FNnG1tSd6j0DcyQHYo9Mw468Pr5qeQSQPcx43t3jgRscORyUqXtSd6ylW01neHqWjGnkFUBDWBkcjhq5/spb5Wz7JPunwJ2L0sOqrfi3EtuLURbizvqsIq6S78McHM2mlmN2f+h5zjPw31c/BWTS9Ocf6fZOaWpzT9Ps34HphTVDuifrQTg2MU/VdrcGk5O7sjyXceoradp4n0l2metuO0rEr1wgICAgICAg1VNMyRpZI0Oadx+vI81DJjrkrNbxvDkxuqOK6Jvbd1OdYe642cO47D6eK+f1Pg9qz1YZ3+Hn+UqbYp8mvDtJp4D0dS1zgPeFpG+fa8fNc0/ieXBPRmiZ/v/lyMkxxZPCShrRnqOPA9WQfQ/Zep1aTWR5T9J+638N0dVaGMP7KVzeTwHDzFvusmTwWk+5aY+fKE4Y8kfJodUjsviPeXD+VZbeDZo7TEo+xl8N0OqjtdCP4nf7Vyvg+ee8x/Pyc9jZ2U+hJ/ezeEbfuT9lox+C/87/pCUYfWU5h+j1LDYtZrOHtSdY+G4eAXo4dBgxcxG8+s8rK46wlVtTaaqmZK0skaHNO0H85HmoZMdclem0bw5MRPdDYfopBFKZCS8A3Y19rMPE+8eHDvzWHB4bixZOvv6fBXXFWJ3UjSOIYlV5ML/YisSLNBOeW45nNeVm1OXPn2x/KPuzZP6lnFj/4aSwN14Xl7bdbK5ad+zPV5+a25cOXFXqmOqPPby/Jy+nmsbwplVhk0eZbccW5j+oVFM9L9pZ5iYcatcEG6Ocjbn9VGajeHAhQ2cXDRTTyel1Y59aaHZYn9ZGPgJ2j4T4ELXh1VqcW5hfi1E04nmF8xDCsPxeASMcCbWbJHlIw+68H/AEu8LbVttjx567tdqUzV3hU5sXxbBntZUj9JpibNc4nybJmWH4XX2ZcVTF8uHi3MKOvJh4tzD0TR/GIqynjqIg4NdfJ4Ac0tcWkGxI2grXS8XjeGul4vXeEippiAgICAgICDTU0scgtIxrh8QB8uCryYqZI2vES5MRPdDVOiNK7Nuuz5XXHk668/J4Tp7c13j5ShOKrEWBVMf7KskA4PYHj1cu10ObH7mafzjcikx2l2xU1YNtRE7vgN/SQLTXHqI73j/wBf8uxFvV2wskHbeD8rdUepKvrFo7ylDcpuiAgICDnioYmyOkaxoe4Wc4DM/n1sFVXDStpvEcy50xE7obTPF+gh1GGz5LgW9lvtO9beKx+I6n2WPpjvKrNfpq83uvm2JzYpgoNukY5jnAOBtYuB2Hg4LTF8uLaLR+rlqbd1arsPfFtzbucNnjwK2481b9lcxs5Fa4yx5GxcmNx1RvBChMbOO/CcVnpZBJTvLHb/AHXDg9uxw/IspUyWpO9XaXmk7w9owKvGJYfrSsaOkbIx7drbgltxfjYG26+/avWx39rj3l6eO/tMe8or8Iyf8Na07WyyA+Yd/Mo6b/bR0v8AtrqtDQICAgICAgICAgICAgICAgICAg466mhnaYpmg32A/Vh492apy46ZY6LwjaItxKsU+hOrUtJcHQDrWd2iRsY7cRz5EWXm08LiuWJ33r/OFEafa3wTWlf6OKZ7qhocB2BsdrnZqncftdbNb7L2Uzkjf0+azL09PLylwBFjYg7b7CvmY3h56vYrhvR9dnZ3j3f7L0MObq4nuhMIxaHGWvsbhNh1seCLhVzGyL1z8IKjWo5mH2Jjbucxh+usvS0c/g2+L0NHO9Jj4u/8PY9RlfH7ldOB3WjI9CrNPG0Wj4ynp+ItHxlbFoaBAQEBAQEBAQEBAQEBAQEBAQEGuaFrxZwuPIg7iCMweYXJrExtLkxuj5at9P8At7ui/wCqBnH/AOUDd8Y8QNpom84/f7evp8/ujNunv2celGCGtjY6KSxbctF7xv1rZkjfwOe0qnWab/UViaz27ekoZcfXHEqThmjdRLU9DI1zNXOQkbG8WnYb7BbnwK8jFosl8nRaNtu7JTDabdMrLj2hEb23pbNdaxY43Y/K207D6H1Xo5/Daz+LFxK/Jp4n3XjOMUBglcw5WJFr3LSDYtPcVmx2mY2t3juwzG07OFWONkT7HkuTG5L1H8Gqjr1kfFsTh4F4P1atWin3oatHPMwumj8OpU4kNxqGPH8dPDf1BWykbWt82rHG1rfP9k4rFogICAgICAgICAgICAgICAgICAgwQggKqgnpSZKEazNr6c9k8TCfYPLYfRYrYr4p6sXbzr9vRTNbU5p+n2dmB49T1YPQu6ze2x2T2HZm3v37FfizVyRvHf084Spkrfs247X/AKPTTzWuWMcQOJtlfleynlv0Um3ole3TWZfn+paXg6xuTnc7zxXgVtMTu8qeUUtKLMTC5wawFzjsDQS49wGa7ETPY7vTfwowithqXSTQSxxuic28g1c9Zhb1Xdbcdy1abHat95jhr02O9b7zHGz0qCK1RMdzmRHxBkB9A1bI7y2RHMuxSSEBAQEBAQEBAQEBAQEBAQEBAQEBAQVjSfRQTu/SKV3Q1Tcw9psJLbn25ZX8DcLLm0/VPXTiyjJi6vxV4lHYHpuWyGmxNvQyjIvIsx3z7m394dU8lXi1XPRljaUKZ+em/Et2Lfh7STyCSJzoQc3NiDS1197Qcm+GXJSyaLHed44Svpq2neOGYdA8Ipx0kzQ7i6qk6vi24Z6Kyunx0j7uxgx17/VJYTi+H36Kgax9too4x0bfmkAEY7i66sravaqdbU7V+ifCsWMWzv8An85oMoCAgICAgICAgICAgICAgICAgICAgICCE0o0agro7P6sgHUkaOs3kfeby+hzVObBXLG0qsuKLxy88p8Mx2Jxo4TMGDY5rrRBp3slObRl2Qb8lgjHqKz0RPDJFc0T0QsOGfhvE4tkxGR1Q8Z6us7UHe4nWf6DktOLS7c3neV1NNHe87rxS00cTGsiY1jG5BrAGtA5AZBa4jbs0xERxDauuiAgICAgICAgICAgICAgICAgICAgICAgICAgICAgICAgICAgICAgICAgICAgICAgICAgICAgICAgICAgICAgICAgICAgICAgICAgICAgICAgICAgICAgICAgICAgICAgICAgICAgICAgICAgICAgICAgICAgICAg/9k=;" vertex="1" parent="1">
          <mxGeometry x="470" y="490" width="90" height="90" as="geometry" />
        </mxCell>
        <mxCell id="qYTeN8mtzP5acfvbm5ag-6" value="" style="shape=image;verticalLabelPosition=bottom;labelBackgroundColor=default;verticalAlign=top;aspect=fixed;imageAspect=0;image=data:image/jpeg,/9j/4AAQSkZJRgABAQAAAQABAAD/2wCEAAkGBxMTEhUSExMWFRUXGBgYGBgYGRgYFxoaGBcXFxcYFxcYHSggGBolGxoaITEhJSkrLi4uGh8zODMtNygtLisBCgoKDg0OGhAQGi0lHR0tLS0tLS0tLS0rLS0tLS0tLS0tLS0tLS0tLS0tLS0tLS0tLS0tLS0tLS0tLS0tLS0tLf/AABEIALcBEwMBIgACEQEDEQH/xAAbAAACAgMBAAAAAAAAAAAAAAAEBQIDAAEGB//EAEMQAAECBAMECAMFBgUFAQEAAAECEQADITEEEkEFIlFhBhMycYGRofBCscEUI1Ji0RUzcpKi4QckQ4PxFlOCssKjc//EABkBAAMBAQEAAAAAAAAAAAAAAAABAgMEBf/EACMRAAICAgICAwADAAAAAAAAAAABAhEDEiExQVEEEyIyYYH/2gAMAwEAAhEDEQA/APIOrBuYtw+CUq1uP9njHcAesE4PEqlndLPGhlYN+yppskvqNPOBlJUhRSXBF/eojsMLPdLuMxLM3q4tDGbs2XMQkLCS9HGnMK0hWKzzxSqN/wAxDLD7bnR6ZhyVMVSn3V99grgfS0KgiKXI7B8kbyQQJcSEuHQtgbq431cFJknhG+rh0TugXq4zJBfVxnVwai3QOgQSlLiNoQBF8tAbRydCPXSChblSJR4Rf1biM1Zx4QYMPYpALkJDKBqYKDYXGVGZDDhWFUlwrKltSW/5jScLmbIQdaD6wh7CxEuDJMiGH2HRSS/HnzMVKwpTpCKTNS0NBkqU8Qky3vDDBy2LRLHZBMiILkCHKcPS0R+yRFloRLlCBJ8uOgm4GF87DHhDRSEpkxrqIbfZY2jCQFpCfqIkqRQQ3+yRZMwVB3fUwNlKImlSYv6uGCcJrFZkxNjoAVKitgIMmIigorAKihvfsxkFPGQBRy8okWixaSGJ1jcvCqIcEU5sYlMzAMRGxyWE4fFEBtIc4HGHVRA845hLjWDsJOaFQHo2Amy5w6peWYlQqkind6CFW2Ogz5lYUlx/pKI/oUT6HzgLZOLSCCR+sdhhscgt1bhTX48onldC7PMMXsubKOWZLUgl2zAh2oWe/hFIkx7fiMNIxcsInJdi72KTxSRb6xxm1egM+WXlffJPBkqHekmvh6RrDIn2Yzi11ycL1UbEiHU/Zi0KKVoUlQuCCD393OIDCxrRi5ioSIl1ENBhYl9lh0LdinqIj9nh0MJG/scFBuxNLlEFxDLZxSCSsi1c717soKjF32PlGfY4loe4SjGJSVMkEl6gEsKMS4Zm8ac4OwKZeXN+8mqDkJdBpwsGpeFScJBcmWQkitaXLX4axDiWpjSVJUmsxIzH4szpQDQJdixvxjW05aEtR1fxU9axbhsUE1CCFcQSokDVT0J5sGEDHDKJKyGfW/lEUaKQPIwZYqSDS7Cg8YY7PkKJDpJHGK5QIIDlhy+kdDgMYkqZQZx4CJkWmRl4MNaJ/Y4byZL2L+ERny2jE1QlnYRxRoCxWCDVvyEN8QKlv7RQZBMNFoRJwfKLZWBrD2XgawWMBqBT5QnI2icyrAMWaLJ2Bt3D5PHTzMA4BbkfCJr2fvVFAA/gBEOZojkZuBYAeJ8f7QFPwbR2UzCXUfDmf0ELZ+Ed/nApDOQnYaBZklo6XFYcC3nCqfIjRMloSlEbgtUmMihUc3svBqmrCUEAnVUMkyxLVlnSws2dwflaFGHWpCgpNCDDE4tSi6hfhTyjWjztkMcH0elzjukyxpr84sm9FFpUerUFgcSAfImvhA+BnJDHrFgvZqN3vDWVtKrE5xoT8xwhUw2QZsjYs5LFUgkd6T6O8dUjZqVALZmu1vSOZw+13SUZjVJS3Igho86xM1cvEzerWpBKplUrKO0FEV8REuzSCTPetnJR3e+MHrnBOrfLyjwHB9K8bLTu4mYWKe0y6EK1WDwh5J/xHxYKUr6laVAXSpJdmuCB2gdDE6l6s9mlTUrIKkBRAISoAE1uBqAeEbOysPMG9JlqADDdAbuIDiPJMJ/iMnKVLkLBcD7uYCKg/CQDoddIe4f/ABBw9QZq0UFFIWQ2hBAVxgp+CKflHU4roLh1OJaloLUrmS+juHbxjjcXshcpRQtJSocfmOI5x2OxOlOHmrSBiZBeyesAVSlEqY6R0eLwsrEpCVbwD5VJqxIuCNORi45XHsynhUla4PJxgomMFHVYjY+QkXb3SK/2eeEbbo5tGjmxgYkMByjohgotTguULYFE5oYDlE04HlHU/sqjunuevlFX2OFsXo0c+MFyi0YYw9GEiScJEtlpClEnTKLM7e3g3AykJoRmfg7eVHg0YOLJWDEQ2aJFiVpFEgDhGlIN7++6LpeHHD6xMSa6xmaIBVKfjE0YXlB6MPBMuQYTZogORh+TwfIwfiNRrBMmUeAg+RJ5N4xjJmiAUbPoR4iN4jACvO/hYQ4CYxaYy2Ls5LGYbj4Ae6QoxWHJ0YeQjsMZJ4MPCsJMThxqr0MaRZaZyeJw0KsTh47Sbs57F/Bh5wBjMOiUCSlKmBJUtQyJAFSQLsOMaKVDuzilYesZHWfaVp3QpCQPhGUNrY1jIe4UeRIlEwXIwzwdJwR4Q8kYNCkOpZSsUYhwRpasdjdHj9ibDbMOoLDgH9Yb4PZRYkgMNCQD5O8T2kuZJws5UnE9hDgAFJBcHdJ93ji5PSzGhj15VQ9pMtVnOqXidmaRxWrPRMFs5JWwH8zBvMx5jtyU2MI/NKegN5csmnjDpPT7GJB/cKYA1lDk/ZbWF3S9P+Zz7u9Llq1/CE//ADCfLNscNRLIl0UMpdnsaMoDTvMSLhKVDM6SRyoQoN4qMXdV94pIyt94BUgdlTM/NoxCXlnkU/ENXBp4CHRoQXLDrDhrpcMSxpZ23STEg25ZiMpZRH5avyY8IuljelneZSUg7wJb92flYxpMglKgxdJBbICw7KnNxXLBQWRSk5bVQrgkjk5F94H+aOg6JTcpnYZK1SxMQVoIJQQyakMbiWSul+qEJOqdQoN9NylSQ9qZfzhn74swWIMtUuak1QqoBLkXaoaoKk90DVisayele0JYKPtcx0koUlakTKgnSaDYhn5Q3wf+IWLDFSJKwzdhaTmFw6VEemsKelOBCZwWgvLmpDKop2CSk14oMpZPFZhRJQRoeFiGULMxuW+ffAkmJpHoWF/xKl/6mGULfu5iVeiwmHeE6dYBfaVMln88tR9UZh6x5KRz5gOWGigyhrSJS0C/6Ese4hyIepGkT3LCbXwk0Ey8TJUzPvpBD2cFiH5wxRICqpYjiK/KPB8DMyKcpzJIKVpqHSe0l2NfiB0IB0i6ZKMpW4ohwFJUglLpNjRqu4PAgjSFoJwR7zK2e+oHfBCNlHin34R4ngekuNl9nFTm/MorH/6PHSbN6e47s5pa1aZkdrluFO9w424RDhIaSPRJmEUKENGDDjQwo6J9OvtC+pnITLWewxOVR4Vsrhx+fVzJqgey/lEO12VSFYkRYJENAEm4bnEDI4ViLHqAplRciVBHVRVjJ6ZSFLNktTvIA9TEt0UkWypYgyUwilNIqxGOlyykKUAVEAeJZ+6M5tVyaRQweIqVAf25HV9aSyWdz3tbvhV0i2h1apYBqCVHyYONQXMYycYqy1G2M8QqE+JxUsJExS0BBsokAHujmdo7ZmlKCF1TmLlncjLXwJEcptLaZMtCVKCkoBCEnNR7k1c/QRC+Qn/FGyxHXYzpVJlLUkpUeCklJCqsSGNPGOO6Q9L1TUZUy8oVQk1JIKSGFHFwxu8Jl4hCqlIzM7MAPIQtmY0EkcPL+3lFKc2x6pF+M2kuYtSzLqokmqtY3C5WOQC1DzIrGRpchcDrpVtaZhZiEyshCkZi4euYjQiF8rprPF5ck30Vp/5RzkmZlT2EmpuP4eBi44gV+7l3X+LhyVHoI89Y4pUdPP6ZrmypklWHlMpCw7q0QV255WvrHNSZySzypfxChmjQfn5xdhJwzUly3ZX4zeUrRSyDwtrGScbb7qV2/wAJF24HlDoaSXRHrpZB+5HZ0WsfFzJhj0rLnDqqArDp0cfvZrB3rQwCjFAj91L7J/7gsSdFww28sLkYRSSQAhSCEuUggSls70O/YwMYtVMHXBT3KFOUJ+LKTTW8VYcDfS47Jun8JCvCiTFmIcZFBUxyhJDg/C6KVs6fSDMh+0EZpu8sixzETHSKZtQr1ikAAsAyxVLhRDMp2IBDluLwTKQlUwjcZY/OwK0uBxov5RkhBUmYHmUCVNlJDpOWu9QALVE5rhKFBa3DpBy0GUhYY5vzWhiIoG5QgEKuCX3g4bkCk/zRJRdSgLLDgdYln7QBJFaunS8X5d9SRmZYLfdhzmaYgM+pYOOMDnsAh3QW/dpYA7ya672a8MQ/kD7Rs9vjkEgVc5QFTEigoOrM0f7KBCHKKF0Vp8VCGqaa31uYf9EJ2XFGWl2np3RkCQVgiZLFNMyTLpopULto4Lq5i5SSso7SN18yWzS1Gussu/sJd0PwCILsxZ7bxDKDVL8fryjaE6NzG8k0sRa/D2YsQM2qiVV7AqsPQV1f+q0XMCx41G4Kqo6aaVBbmKRQiCJXultDQ3hrg5RmJ6kg5nKpV+18UruULfmA/EYBlpHf/wCN+Pl+sGy0gatzYimiqQmBXKle/YguTIi7HSwsdeGDnLNDGkwuc3ILYn+ILHCN4QA6j34QEhycPnGcdsVLXU3xD8wufPQx2WyemE7KELlpWQGzOQVczQ18I5nBBmqze+EN0SknfSwIuOHPuPvSMpV5GjqsP0nSe1KUO4g/MCMx22pxP+XQlspqskKzUZgAQzPrwhRhkghx4j3pDHDiOeatcFpkdr7VxjpMmUlgFEgqSSTUJFSKMyu+OWny8dNWozJa95g12D5mdJqHFo7uSl4uEuOTJDbtm0XRxk3FzUS+rIXlzZi6SHOp74XIxzqrpQP3vaO/WIHmgEVAPeH+cczwf2bRkvRxU3a5yrLlsyUs5ahcesUzdqlZBKqqTR+LnjHUYnZklQYykXfsgV8IWTtgSKMkpIsylejkj0h/RwaKSOambSCgx1vCXawAF71jpsd0VRvFExYJ0OUpfwAPqfG0cbtNK0Ey5gIUOzwI5HUd0aQxavgrdAMzd3ge+Fk8sS1uMXHEMWMUT/SOqMaZnJgqp8agtOMYMDQRkV/hnYCglaHpQkbykj8H4iIvEkuapuv/AFJfD+KBZCSENlJqeGuX9IKSBclr3I1DR1bxXk5gzA4c5xVPwjtoN0EWCq3gOV/9IPoTBOBmI6yWAoOVo1GlIoQN09yfQEcYuMlLolliZen/APQf0x0GG2kuVgEqw8zq19eETCBU/dkpBcHQX7q0hQkb3+5z+Kn0g6XLH7PWpgCJ0oks5P75OvJQEOSEmSV0kxnVA/ai4WsWGZsqSK5LO/rGT+k2NaWRi1PlLsAC4WoB9ypy5fSEyVgy1B7KQeyNQsGvlSJ5gZSami1fCLEJIq/EGDVDHY6V4vrUn7UQk5Cd0ZQFBJUGKNHPlE5HSbGb6TiluxbdSapOYtu0oDCPEAlMvtndKbcFEMO5JEG2mhSgtlFKi5YkTAM9W1BUIeqEMv8AqnGlAIxMxwoiiU2IBQ5atleUXq6R40qIGJmMsOncRcgKSEhvxbr8HhDh0tnQoVA1UKKQXPeyc0XFigFkgpJAqSW7aXAPEkQUvQrGX/U+NyA/aZjgtVKWYh0v+KyqQ32rtucmXLmYdc2VLUSrKwZ5pM13Nxn65IYkNLFo5cpGZQBQAoUoos4C0gOHd2T4mOi2J9/gZkkOVSycoSAKL+9l2ueslrR/vQpJLmhxYIOk2MqBiZxbeTupcjUlrUrrYxaekeM0nzj8Sd0WD5vAMf5YSsWC8qyEnKovRi5SkFqOAsRIIZwU9llVUBulqNzcGnE0h0vQWOU9IMYz/aJ7XGjpdj5GngYmnpFjNcRPb+JqFik++UKUyxWiaMWKncFqUNfCt4sRLALOimu/UHW1h511hNIZ0WB2/iMw6ydNUmoUOsDihBKXsoAuDxDWeK8RtLFy5hQrEzCzEKCyykkOhaeRDFvC4hbhjzHgHt3w0mozy8rqK0ZlI3coKGzLQ4oGAUsD8yhE2kwaGeC2xON50z+ZUNMPtSZ/3FHvKmjkcPiWq/q9OFOENsPPfUesEokpnUpxcztBam4EkseBhjKxJUHCj5mObw2Ibu1EHyp2WoND7rGEkWmP5OIPE+cGInOLwllzXDhz3ViasYEdohP8RCf/AGIjmkaIZzlQunzm/WFk7pThXy/aJRPBKs58kPCPaPTPDodutXVjllK8vvCmMvNGsUzpJmI96H9IEnYsa+++OPxPSxRpLws1QOqlJDaOQgK+cVTNo4pfwSpffnmK5VzAekDlGPbLOmxGOHH37184U7REqallgKF60bmFaHmD6UhGrDYhXbxCmc0QlMv1SAfWBpuzkfFmV/Goq+cL78YiyZsrCqJZKVEX31Hz3oHnbOkinVJbxP1i9KAkMkMOVPlAc+Ya187Rju2+Gx2V/s+T/wBpHlGooOIVwjUafr2TaOdmJNWSrwP94GVg16sO8wekGAMRh1kksWjuizAng5RROlOR202L2UIPV8Y5fJYH1hKl0kGxFfKGEzacxnAQ6nf7tB1B1B1rHRF0S1YzStq85av6SeHOGeCV/lcYgKsEFrh0TpYPIE5mjnpW08QqiVsWFkoTQUFkjgIebAxi5kjGCatUwiUo7yioiy6PwKH8Ie98E1QtwyzlmjOwygsHqQtDehJrwjclTy1jOq6FNowzJJvSpGmsV7PVvMEgulYYvdSFAWNwWPhFmCSo50pS7y1WS9ENNJqKdi/fGoG8yerF3CuNN5IYWu6TF6mKEMk2Uk1dyFE0p+FSYqwhUUTEggBkrZwHKVADvICzTvi5DmWXWN1QYVPaBClWb4EDxEMll6kETQoy2CsqmOZsqxvM5tU1iUqUoZ0HICLuU3QS4B7s1rxklCClJc2Ulm1BzCr1ooaaQWyOsCspIOUkE3cATKgDXMIlsQNUJQoLAKXAYEEMc6S4HE0r8MO+jZUJ5ly5lZoIQVAlIVSbKzJzCoWlIfj3mFyJChnQUAEVLuCCgsRU8CX7otlz1JyLSpKVIJCWAcFBC0qLCtS1fwwnyqBcE8bgkicuWiWspUxlJ1ZYC5YbLWhCW74ElyqJVkFHSXUzu7G4ah/pjoemEtJKJ6CcquzyTMecg1tvKmpZv9KEhlupQTLUyg6XLsO07gAGgUIIu0U+ytKctCUDKSk0zULuqgILVr3NBKFigz1qndSLBiNQ7n5RUPh/dpChl41S1Tcg2L8zEkzqVWqoZkjVIZDhwLa98DGgyXmN85vckBx2rjhBOHn5FBSSlJBcF3INxbXwhWx7WQlw7qNC3bqwfz4RoYhjdI7t69ecQ0UMdrTsPIyzTMmhEwkpRKlJIQpLZ0Z1TE0DginZUm5eF3/V8hP7vDzl85k5KbflRLOj/FBRSnESlSFEspilRFJa0uUq5JqUq/KsnQQLs/o0iW4nNmBLvbssUljxJ8o583yPrX6ZSjEijpzNqUSJCEjiJizyDqWzk8oEX04xptOyDhLRLQP6Uu/jDCT0UlAHMtwS6QDw40rqIOw/R7DpNibcbjlrHLP52Je2aRSXgXbI6Q4hajnnTFv+JalM3AE0hrO2DLmpzDcWX3ho78b3vF6MDKSzSwGo4fz511i+Rg+C2Hi/rHn5fk3LaHBaFuy+iiULzKmBbMUtSvnHRplABr+EDGSOJfxjaZh4O2j+F458mWeR22UWqSBYDwEDqL6MYgZx0cU8NdeMUYmYtgzA9xiUgJKA1v5QHNI9/rEZ0zQkeDiA1HjT9XjeMQs1MWH8/wC/vnA09uPsxtU0Cg9+OkBTZgL8O/3zjpjEmzCR+KMgdRD1MajbUmxJMngCB/2gqKpy96thFa0sWj0FBGQR9uU708oz7evl5CBYyK1QBS8etVyPIR0PQh1KxCE9pcqYka1MieBTWpEcpHT9AF/5kJNlZR/MoIPoqGkl0TLoH2bNUJkshRTvpq+Vg4cvRheLMJKAnJQtQAzZCam7pNr3hclLBnqKe37oPxkxKZylJBIC8wCjVnCg7co3JZZs/LmYvVKxRrlCgn+pong1DeTlclBAcmmUhZIZtEmKVT+rnFSUgBEwqAbMN1TgMp3HfF0qWpE/qyrIyzLU5ysCShZPAMawxBWFWoy1AAMCFWDgdi5qzlNIIVOJQk5gwzIZ7Dtig0KlKhZhGchRZwoUD1Y5BVqZgmLMPOGVacpLgKFfwmtNd0nyhEjPrEZ0qKiQoAq0O8GmVL/E4dtI3hqhaQhyN7UkZXBtoxL90ArWTLBZICSUk0fe3gC9TZUEHEDrErmLcLYqIcne3ZhYtXtQhHV4cmbgmcAozy6MScj4iU7Wp1yBxK454zk5UklRUlTNQbvaSxrrm04Qy6J4vKZyG3urEwB/jw6usSk8jVJPPnFU3AKTnImSZeHW5TMVMQElD5pZZLrNGsLmsQnTaL8AeQ7yRLYUWCo7wTpUkBThQNtKRdKWc2bOK/eAIBACg7CmXK29Y+MCL2jgZZGadMnrFCmUnKlrD7yZcNSibRkjpLu/cyUS0hrkzVG9XVRJqTQNyjPLkpcFJMY4fZ5mKOVCl0CgasW7SXTRiaPm4RRMEqV+9n4eXdwD1sxjQMmWFFwXuoaQtx2Mmziy5i1s5qaXBbKN2vIQCejKlEqKhViBqBzaOZZ+f06K1GR6Q4QKASmfiC4qoiUirAnKMyj5jSOinfeKKgwokNWyUhIfMSSWAqefGEeA2WiUewLNXhRwDqYeywSUhu46e+UcXy8+9JFJFKcAv4lDly+kM5csNo8RXMSgsaqD8NPfyiiXj0Bw7EhJuwuKctY89uUzRDLq1G3y+otFMySTf9D5esalYx2ygl2fjq5ryKfGAztNSkKTLI6x2YkCuv6eURGEig0JIADtzvRuPhFQJBqXPGnGjvCCTMxJWnO4DAnk4K+OhcQVMxEzjVRPk2nmPMxs8LXlBYwWsijhqt4afLzMULm5b6830aoFB3c4TYrFLzBN9wF9L0HnA6tpqolQcvlLUqACSdLRrHAxbB+ImHjbytrxgGdNIY8flEZ2L5UNrVeqT3wDP2nUtra9O73do6IY36E2FTZwSan5+UCDEggeNooxKnNC/Hlw9IEyN5ezHRHGqE2XmdzaMgNKBz9+MbjXVCFRMTUKA+B+nvlGgkRtm7jHUQVxkSWGLRGADIedD15cSg80n+VaFfSEcH7Gm5ZoPJX/AKKgFLoL2kgJnTUgFkzJgD/lURpGYxZKgcoDol2r2ZYQTVy5UCYt6RrAxU+gH3qj5qJ143iRwWImolKCFqRkKUqNEMJiy2ZTJF7PGtiI7RUsrClmqkS1OSKugOac4hjWzPmfMlCnZqqQFKvwLjwguds1CUo63Ey0EJIUlIK1jeURZkmjWVF0naGHQPu0zJisoGdRCUuM7kS0hxRRDFRHfpLyJIRFUtlmckAAHrUpWSSQCFtQMR6QzRsad1m4lUtBKkBamlJ6lWZJKips5ZVcrjxpC07dmsDLyycoZPVhiAadq5onWAZs5UwErUpXFyTq9H9mMftlY9RuqRhZebrsUmtkSQZqgQR2icoFMw1vygWb0iwqABKwpmEPvT1nUv2EMkjkeMKpmzlKYirlv08KtFsvYCyNHq45tQecH2ryw1QwT0pxM3dKhLQpQOWUkS0E5go5gkVPOF20dlKJSpA3Fk5RwDm1bMz8IPwmy8u47G9u76N5w3k4XIMwLgkhqirZQ3iBHPPOovgZy2G2Qpy+jhnbybl84YYaSLCydL1fhr/eHaMOFDMxdyaEDNQsedtYvwmBlFaSpJSCDXSiCQDSm8Al+cZS+RfY0DYCSymOuja2Y+sMjhSAFJVR2HKrERUnFAgoICSbEOTR0iunPu5wSmcQ5S2VLF786cC1f+Y4skpNlFokhkkkFRJHDifD+8WTMWWyoADAEAk6lNfWBv3jUIZ1ODWpCSL8QfPk8U4RBIVnIzsEpa2rEtpWMtb7GUY/aDAzSp1ggljTtDjf2e9ViFoUp0LOYszBrC3OxNeDavHRSkgu6UtwpxOraAQuxmzZBUFIBSWfQJpRm0ckGOjFOK4Atwe01JlI3VfCEkAlhY2u94jJxLOTLrV2u5BavF0+UU4aYAyQXKUsBmZ0sSC3EEmkUHaSQGFQQO7XxuX8TD0TbpDsqxm2VMhZzZapU9r6Dx9IrnbQGYFJuQWJs4ciNz1yzLoATmfgXBfwufOA8Vs8FgC1yqvMn3/xHRGMPVCsaftALSAKH4TYmtAfehihKydQA1/IecJk50Nu1BN+938WtFU3G1N3p3WtFrB6Cx27irCrNy098jAi5gIcgOGblFBxjhmJGp8FAWHOKioppo2nPR/CGoNCC1Fq0/SrfWBpiiSQ3h774q64lRYUIHgwiAWe1z+Qb6RajQEh3mMiJr8TRuKAGXMAEDLWTeMWgi8S6vhG6SRJKezCxLlyNbNFKS0WkFmMUwIAmSSvKg+H1p4RHDLKVOBb60r5xvDZfiLNVw79wg3CznWFElmbSltDfSE3QFszpJNLKyy87AGZkTnLBgcwALsBrAGJ2lNmF1zFE98W47CGjCtfHnc/SCP2WlmfecA8bOco4Qt0KhRBmFmMOHswzRgEqU4ZKa1FzVksDc0tziJ2MKF71I86Dw+cS8kemMrloKkkiyb1rqLeJizBIfMbgVPc7P6+sFSNnoykZ2DX4sx9KxYJSCNxwMpSp68yfA1aMZTXgArBlIDbrEsQTSofxDB/DwgvMpypDJYgKBqSWLv5FxyMI+oUlagMykAOSKfhcsb1+UGSNqp6sMzhVrbp1f35xjKD7XIB2JX1bEpIINBagd3bSgEUqxK0q7JVvVFKEggHwEK5+PUpIK03etqMkBuQIMNZiiSFbqgpDi9PyMRSE4arkCzB7WBRvgKpl4pZJ9A1PDvimdtgJAAIvQG5DtXlb1jUzDiWxCsqWZhzD34vWBsRs6XMJJJCi3MkWYAc4Sjju/AwJG0iS9PVmAAHPi/fB37Z3QLEa2cpFH00A8YCxOwFgbinFT5MKNAisHNzAZato44Ctb6xvrikB0ezdpFT/iuGFzcCuuYnvzDg8SmYmYlZ3VBNWNadkCviBSOf6hctQKr5s1D+EhVnu/OCpm0d43KFEHK93BFGsXJLWjN4Vdx8gO144NzJLnxIp4fSAVbQNGfNVuQcHyt84WSJ4KT8SnDOa3IYU1F4qxrgCtRQ81ChI7jTwhxwJOhjn7YKOACCCDSt2c68O4wv2qgJJy2emVyLAkvyc0hcMWSePL37tEpU9yynN6c9PVo0ji1dhZpOLYa6+tA3g9YMwmLq/cw8AHhZiEgMUj8Tv3tFYUR841cE0IcJxYGV6kUfnRz74xBU6UTmUl1ECvnVoXFfvk7/AFjS5gKcoGt+7+0L60FjCbNDa68OL/QekULmHwLd7msDrm07vNq/Ro0MQTTQ3/SGoUBaDoIoDnWIk1Yxak6CKqgIFZEbi3d1d9Y1BYEHHjGExWYxUOgLAr34QOpBJixK2Y6xMKtD6EU9SYrEHSkg98SXKBuKwtgK0YoAO1bEad45xYMUSByfvqAP0gWdKIsKcoxCSGpU2gpAM5OLvdJA3W4gjXhQ+cXTMZQ5gcxD3+XnChCyP1Fq9/0ja1uAwNB78Ih40AzGJIypZiNONX+kXy5pK2oKE0FrXHO/hCfDLL0U3M8ILlSi5LmjMfCjRMoIBiJyg7eLOQQGNxcOIFxsvOQpMvLcFqEC76MBaCpcwpYq18zXLpzo0XzpgGcBgXdmFqu546ecZJ6vgAcJcpChTQ/FWppYeHHuiaJKgSQotusBd6hkjk78oETiHUTcacotE8XIq9qlmPCxoTDaYBqZ4KTYuxAIFXcFvAX498YcSHCtAyW4AO1OLEecA9cAVZn1YijC4I9IDXiHSP4n+rwljsZ0CdptnAFSMmmii7eEaOKKBlUQSQa0cEg+QcwmTJ6zLlUBmc1LVFGrx58oivGlRLguzc3d398YX0rwA+RM61JRQsCLUDpBNdNIUTcE43VAboJDF3JduV/+YJl4odSUVcqfyFSD4H1igunJvUUCe4gsRzoE+xCgnFugExkLSagiorW97xOchZoS4BPmS59Yaz19ajdopNS5D7xLgcRSB0ScqgFUsS1rPUcC8dCye+wFRcUo4cRYiYRUHV+8ixguekKJpU8KXiBkgUvoPT+8XsmBu4BcuAr1andX5wNNkUfVz9YtROyqBBp/x/aLSAptHAD+IA+TQW0AItwB75RuUkcbEd0TWks1W58RFVrW/SGBKz930aKYtQr35xpnb3o8MCBV5xNR1isd3GNPDoC4rMZFOaMgoRYCa+6xDWMjIALVEFuDtE5beQ/t84yMiWBWtcSTMJPlGRkOuALZc1qRskE8AfqYyMiaAirDgFiXA077VgmUgNUHwMajITfAytKkAOB3+pjZxAej1p8/1HlGRkOhFmKxHZPxMD5vXyiye6SASS4q3Ai3l84yMiK6Arl4gpUlQALK1qHILFu5osxM5JfLQ6D51bi3sRuMg1XYAs+dUA+YHj9IpUqhY2Apx0jIyLS4AIwk7cy66egV9PKIzZrEpIrx5invujcZCrkZfgsSwKVFQLKqluFH5Pw0gcTj750jIyFquwCVDIgq1U7dzkU8Xiidiip1Kod3yA+bxuMhRSfIFBme/fdFhnMkka+b6+bnzjIyLoCubKanAt83iuSo66OPX+8ZGQLoCUwni9i/vnFYXGoyGgMV6+2jag/JrxqMhgaCHLPaNKFI3GQCIRkZGQxn/9k=;" vertex="1" parent="1">
          <mxGeometry x="210" y="510" width="105.19" height="70" as="geometry" />
        </mxCell>
        <mxCell id="qYTeN8mtzP5acfvbm5ag-7" value="" style="shape=image;verticalLabelPosition=bottom;labelBackgroundColor=default;verticalAlign=top;aspect=fixed;imageAspect=0;image=data:image/png,iVBORw0KGgoAAAANSUhEUgAAAUYAAACbCAMAAAAp3sKHAAAAt1BMVEX///8AO30AOXxhfKUANXr2+fsALncAN3vs8PUAMHidqsK2wNL7/P0lVI3U3ejv8fQ1YZaOnrtacZsAK3bG0d+mtcuUo72+xtYwXJMbUY0pTIYAJ3R6j7HQ2eVrg6nf5u6EkrE/XI9ScZ4AI3NIapoAHnGtu9CZqsMAQIF3jK+js8o3WY5NbpwURoQAIXMAGW9ggKkAAGkAE25AaJpRdKEAR4guXZPAz94AC2xJY5ONmbU0U4lIbZzjKNR6AAAY1klEQVR4nO1dCXujOBIFLA7FGOKA7Y5ljG184ANnppOZtDvz/3/XVkkcknB6Znd70uk079udjoUkpKdSVelAMoz3gJuXpYaX/rfi91vxj/O3KmuHDh06vB3s41TH8LW4/UKPmsdvWdYOHTp0eEMsdJVXXNWOca5HW711STt06PAP4bfwv8X5xXEo7lX8MdGj2FqM++sKtEOHDm+LtoLzX3nwtyn/JsMPjXjwSccjr/dBf3BrKwnnrWQ8+LmV3+Dw9rV6e/yv4vhKsl9TGDv8HPh1ZDG+19XZfYrhQ03N3UtKLtHTDHiSsa4Z70c/pk4/ArauzWz/eniTxL/+rJ3Tj6hPhw4djN/08fEfCQY/aaGD1+L/wdey961cfrE+7ds6/KvBVfxW9OuhvxiLHTq8K+z05RcTHcFnbbWl4N6hca/FPWLgUM/h+CPr06HDL4O2NX3VzvrXQq/GfD152wWw7fADjLO93+4HOgru9Q21B/e4T9H7pEWNDSPUwu5xDSb9Q8v0D65Ge+23DXY/sv4dOnxM+J4O+2ooxtXDfCP8J2nDa2lF6MfB7M9bBX/+BoH2X1roLfKoBQ5S40mN9GkLsQ6ftEBUgMFAy+9T8GOr3aHDh0aowb4SFl6NeCWhHsZdw2thHw6HOwUnVGY3atjdBXSZP1fDeoeTmhCdzqGWcA1aNdTC7j6YfenQ4f3BC1RcCQpA8dl6mAoc86V6IKjBsJ37x0Sw6imAuk+e1KAnqH2oRdOAOnXY/JxzQFhc/lmGd3sf/ytsbw6A3fhmtOUYeW9dgmGJ8Xi3G8U/qV07MEfB5s3FsJ85lML/KLw9Yvns319Xi1VASKAFxaD6Uj1MAaiCZ+lnMCemDDJPMPi/EYr/V34PjvR+i5JEeap5r953YPkwUwA5TuCffYPZbIJhC4T0QARwoLDt5RR7pJFkAJaxiJLlArP8lusdqB9gpw+qObJDMdnb1Pz5MP463PVT27Db0x+QQQQloBlxWeZYpunSVM5urW5iH2srRvKcM3/ZZNFbr+/mN3Vj2NK8DSKOE4TniX+TeMIhfzuZHnbIArA1PsRNafpjBCogYHc/V/aB+haKYIoIkv7+PB5J7nrvcEXU5p8VeQEWlEiT+7woCvepKvU6YthrocNOe0ViDB9oBGCA7Hw+m1BPII/wpklvLBcYlT96Ch7ulZffbNRPovaoCxy2rV8GkkBcQh2WDwW3u4cIlVWdbL7Bd7MkLTJWAQr0u9QB0wujlFCuaKIoX5RMpi8RrUGcqVwO27RMOqt/LhbGGgpSIYoWOoseoXcKjZQUig7wXNciF/F3uGbE4p0V/muRDNp8Ti3LsqpOnAsa6b5kjUI0JjXLnGZKo904kdoZRpFlRYJF+y6Dl1ku8Ihvi6aim+wgRlUeRA/6XwQy7kWiYFgWyzzL2sJz+SNTFB1eKSoYszKFBVV0X5Ry5AqNoIt4J3OhISiWJtI2Pxtjx9zI4pdSixyVOFBOR6w8BDnFDsvO1IyyiJgsLsvilFJgaTQaM0jAmn7sQYsojXbjmGwmB/iZaZ7FbOkU0rpRvu49LXN4mUlERl4E+UuWcwv1IzgPiCyhzAEtjuPKE4yPQIpJsewkosAmtW4fceLQrVp/+lJQU5lUxAQzb6CGuLfD0WixppDO0T4s1Gg3PHgPXcsxFkAal4/UgfSEzCdYzXR0irJnTrtJR8LA9adEoxFJjppNlrsIhEHWlUCjyZTVIQfEF/8Nc2DOGUzEyl68YiiQKMl2YclZGhPIs0hBW14I0AvKDP5Mh78n8sz2yYVK8gfJ0MUeQmKc/YYmY88hnww3FlYqpUgFLXIIvJaJ/hBMgYez0qv6WDxT6sVIo+n0NBpxAsTG1PTSsDBxQBpTCIwqcU4HpW5UaNzWKQrMQW40pNFiWymEAlv47xpqG80b27iFbN0cCmoPLDlLY8KARuw+d9BrajsxVxTTU92hIP0cykQGmPPGrJgBKDtqbV26eOuxkroUc9jLTy8o2JFkpTiNZiRFGpY0LqDKqpxiUTiNsoApNEJaM6tL2ufKiEkqQ3hHZ8muEiGNI6YZJ6ALagaK1H9RpTFGGrEkCo0qQC/RRuaxUBGqBYVGFSqNICY+0liVE/JzB1LsABQNFLxoQgSNZtZon6Ho1B5Uw522/DxU3+w1Gj0T09QitYa3AwdSJxY0WrTpIaDZkEYotGWpfgXoWQve5B9dhcYEaDTX6/UJkwxO61soTHy7llE9qn6iljRP6xNBdffXev2YwphbSbFGS70Yr0+A1dPKOvGQmsado3AGDgboE6pYAUGjxeqGLWkcQo2z9lEW6VUaeUPacQFNlNV5Q5uR/R1xi6arHsA+uKasME1OI8qto62o25aQEKRR3geP0hiASlyjbvTSFOdzUi+V4EGnBoNR/05AeJyx56HG6WOwrzvAqBth6PIMiLe/mYWXBrI0jqnpSjSGkekeQWO5jQPhgZNRQCbWpqo+2HKkETQjubK9SqERd3Agje5yd7NYFQyebRoyoM1Y0I9M1pzQNMICQPuQopI8eDXjvcbKdMmfQ+FBpy1dpfMmUaMb6bgqldre6GzIw2KISsATPpsNM0Old6MmNInDfUWHIGVoGWppewQuJPUGwgn6fUatqM4khLJe4jN6MXEdCWhMqWJza3jwvqyicfAsaDRd8K/Qw7Tc5zomthk438wkS5lGZztGl6VSFwWnEYWhdVYBGBN81ZLoNLqVbqxo9PKxknJOFB/JgLZE3wwsdfTs22HoheMvqpIshCssfGIueRKNWBDZLhauldtGmnHdLWBTFNAJiL1Vqt8bTiPaXHZlEIQ0Rtv4edLvjwabisZmUL2uuyt4O9gZQaYaFxxpvDHQdtJLVSSg0SPtPi18K6jJhSjPAqDEXAG4ArxbgTa7uHSwkjGFDnKUfoM0me5qBW+ximlR5DmI3KOSwuTjCw4XmHziIZGg8QACQiTNBC4XN0cD16p9FhvMwNE3RmDF3NxraDxgA16Z4vC4YecjMMdlFY2Ee+OoZklWNRu0mRtyXUZqf0rQaPSc2qG9t8zMCCAP9qy/Cr0Q6BBXaOS6ES1GWXP0EmXdiJZ6L6nLBNvtmY97LFdIXLSVUwS8TXrA5+m0LhzUjVOkcfK4+hShEqKS8IJS5hIHA4Fa5ksajTH6RnxYOOI0gqG5YqdLGitgc3ETs8Ky9sf3WNCsX7cZl3kwEbVF2Qoafe4l7iUar7oiUDfozieNRgc6XakbBY2u2yhJAbSkX6XfIXbnxED/i/AJReIyRZv60CnqMYQ9NyEEaeynDzgytdhAKlyQlUYjJNAedkMj901nyCM+Bon5OxqjjM8pUVbSWLtcwwjNME8GteejENS1dKHSaPgD4IBhUw7cisak9S4xfoG+6EgscRpL3QgC1OutHo+5o9I4IyqNOH4Bc8DQNRuNRofhrFDH+tyg1orOx4Khu9oXFZoqpxjOS7+at1ZlPvyKRmMOKeiJVxVo5K7SNRqRxT53MOL9Z51GzFk4iuD5u8LQhw70IlulEUbQwGMGET8hjaUW1IDTLlDgFVGEDSnPcb0EFeByNtuDJpp8Ps5lHFE3Sr9xOsN9wrlZssIJSPSKT0qKHMcpu+rXXoQADT40s+IyQnVAMcR8XWxEa6/cxzYV6vMOChj10KwBx2id6DXdaEqCs4h1GkNUJBfBJ4zG+4DnQeP41TSCVLt8WAg0no3QvWpiIGcYEt2pZpfrxjhJAlBR5LcgSaCFwniSSMDJbDIPmt84jnETbABnh8GQTaIgLtBv9OQgkE/0+xJwYqg8K7XDEYQT4fQdzvVWKr2h0V/i/MxwwmnEOrArB8kpNHKZUWg01i6XYtvh8yscrlk7r/2aRiMgOKyMgYwz79ruo/4q4Nyywis0Cm2D4TM9jcCCNnoEMReDuag2vjr8e7lTc7yUg6eZo0xaoc40q7lCq5QZQ6bRsFFjOReRHpXulVJ6pkavRiP2HxjV8TazSpTGyFBoNGJ0ssyBhTSiuLTcK+jN6Ez2VBrB6rrT8k2v0QjZKY+wWuNv0ajqRo5qDIp+uEVq9Ya9lNRrX6Q2jRDpvvKJvNzlgzVMP0ct11aOf0cjuCc4OEbxqqf3wNiVgwCZRjFzARxvDHRlVfkBBOVsEfrS0swJdBYz389mMxAX9zjbo9ocqsszM5AE61j/WmDTOk+zGerGO1xkAcfhsFdSoG6ce3JYUU3h4NikmeqGMRUdljsF0hTsaNnjZRqN1OJ1RxqDs3mttf+GxhBFbOpDm7lFtY3LTpxq7g6Yk4zqIeMsA43GHTQaVV0eKLBFbS5alrQUMQOle0niOIEGI70kxkT4U1roS1A33lUhyY7r6yROKA6tE7HklyZyinjKV0LkkJd6DIoCVQ1isL2dxmTEaJa9Fo1GwsckXJpRrtp9oEWjr9CI09/QPiAOssnA7sldcKBXtrq7rKIRx56WJU957FEnoeQmylAsra2R0qlDxScZU6mLxpg1X2hzTKlTb5UUA+tKpy6rgANuyxEqZ69pEqBfjN5hrDGVVhL5IgGXZjRsZibx6PdwCSSXFcyscr/L30NshXOSnsEKS2Yep1q56tNo5M4qp9E4nFGd1FWz76J6tpNPH5dPvGkpo5zGeoXCXikcAI1WLtokPuGQIOL2FCdQhXrwvdFZoRFNjDx3zTtDJQkTKJvQSqFlqQYWuwrFP8AEKF8Qb7NqmnTHJyz2peb3t9OHfjmluJzwdc3RiYq1EpOudtvtbh4hi9GceztyoXxiCdWHNC7kwqKzuqkZtdhxlIIaSGa4GEOPonlRHE22nnheMsNJJFp8XSwWX1/wz/vV6fH2031GL1+bZeivODltZfl6NcgYuozZC08hVpbY+XzOsoj2FhIsrJUxkUIKaQmoR8u1D1wVkedvxXT/jo9iNBsJGqt084ZYM5o9jsHvX2cRn7tI+YROOagmplAPaLz4T2Ti5IembhJxxIFLF+DDkFul0WFYuCkb9sHlOZs5ZVjhZjVutMFFoYhFDBeoWE94hDlfE8T1WDBhdNy4iUl6FEuD/IlFzpcEHwYjsTGhnMshkquZLvCFLA0bV3OCrmY1Ueih3cURba4b9DCzwJx4UDHLctQtK0NWecujDeEr+EgRmlRbrIha9RqrZfgned+GG7ljPuOrrmSBtbUsCvJ5hH8jxZKAs1rSaDxPUdbKNVNFap/zqBrKk2plcZsRCQ9KT2P1erTDzLtqRQWXr2tXheVSF5zwFexqSZfTs8RtPZuKsoREkNV2sAHpUQb/pwzziraOmee5IxUZMPtcze+ldxElZetRBuK8fXAcsWrOS58b9182m82ZI9s4lx0I9vz3zSY7/yVlGH/BJfmH+QLbwCWKV28XnyvV7B8uGYscGvG10Z5UXHuYZ3ybQdaQsrqT9tX1JFLC+R73TCxwg8QuqVV0gBu2dhUO8rraTvTjWaMu092Bo3YFd5hbnIKTk8pju3KGyL76Bc2qma8NhiAu502Wn4YJ7qNMFXj8XCrcrCLlAr99X929863dMJ48ZA3j0c14tHAoyt1cluhgOxqNnsPqOyF9v7y6IwYn5kPbVh60dtl72iMl7F/YPy9tsnkjpL0zWmQ2D/QmCNS98Giqt/q2dxTjvR6o7KDHGF/1UBDovhpyc61sPxXiF4ZEOlP6cXcOvwm2U0bAzH7zxpIOfw9/e2RHbdvgla3wrR304ZVAbb88t1OtjfWgPuxEDXrz3cv/CvSpka22FR7N7U4LW2HVD2rYXkv4hFSPtYRP+HmRFvbKFFKHDh2+B7yJDgyNJ88KJqgIUi1iaDwr0Sa4id5I9Py8K0knH81TGA01oGYM9cAh0jjRwjxjp4Wgcoz1pNguXivDD/kRa4cOPxhevw2uswI9lOvLRAsEnWdrQVv7araY2r/ysvQbhftpYI9u2uCecV8P5TRu1bAx7p7V4o2RmHCsh3pXkiMOP+lnfB06/GQIDiMV4rO0kRpcdkgt7kGs+Oqh22+87qNistOBPp6tB4qR+UEL5YuFcSuHH1mfDh1+cUzGGsTXBYkeWsUfaQ+4BjB2ei7j1973QdHf6uC2JNYC6+lz/cH16NttN4bu0OFHINRdxtJn1MMP0t6CVH9W7l1teZ8fYgT9j5Ds9GGvsBipFr6TZl09PY3YHBLrwbvWJzodOnT4d+G1fL3xWBx8PtSdRnWJtuUkCs2Z6MnGw4+2AnMNQWtxqzyIJ7y66tWgtYj1WrLJlW9ZOnTo8NawbzQH8Kal4Vru5qH9xeevjnSkjY6vnMPYGkG/8tlWhw4dfjjSlvN3dYdp0Fo26Daiykhaau/qDIPXitbR2KHDe0R70vBVTyZpT1V2W0sEWmvTu92rfnXajvvrzNN26PBzIH1l9+NraO2K7Pe7oTXYl/a06ze1XdtTH75yLmmHDh06dOjQoUOHDh06vG/M3G67xHdAHjkdj/8/0jV76FauvwPi5e8dj98DH+BYBF+5Rjatr8ZLEnF4TnmmbKpsW0zG+/msL280CfoHMeMYJ0lcPvCS8uAeeDoSVIX81B38T5J49bltaRrwj613yhKNv+XbfZrz2d7zdx/+iuGtdoAv8GvuuJH42ufwEG3wINDhGR87VLpeM1kyPIQ7onVQcHxg9LzJwVhMNuxLGeqRKLsFsuLBA3M2m2nCc8Vj+PD/m5lhPGfiVj264UfdzTdEaprFAz/EdMjE1Xv04V2v3wSRiQdbutFng19mE5Xh9644zB2PjrzPM+JMyypuHwjLL8ucEae8hKb/kE9C35vx0xd3rD5aNbIskKDRwzQO/XT+MEQaiZXnZgH/RxqNE7Eo53QkEkgnPHtUnDxr55aL3Gfvm0aPkB6eZOjlPt74QPIyfEnE1QJTkvu+nV6II6o4Ya7bx9t/JlMirsYI3fJk+BM/xPKWlvdwTvl1EilzxHpBATTe7Hzb/2RZqe1PMPKCOoEdhvaQMx8zs7nCc0HLk6mhICEeanj7vml0qTgVl6ueqVvRuC5pvBchYS7kNIzcvKrPhfBLzfosEzptwjNKibhPYyfurrypbvk8LMp3fHJ538W/v9LytjXxGVzUHDju1efaA42ifO9ZNwKN5Kn51dB4Umk07gi/dXJGm7OsPdPaBHhpQXlet19+R83YmOfLDw//Sp2J/BRoJLUKXFD50jo8tbf6vZBpfNcECtQ0clM6dc0y/I6qNF7cMx5uatY8G3h6NJ7J3WcmUz5AWNMoMVZl3wZpVO+LNG4bGr9ScU1YwomKo7w6Y96LSFFenbIs9cz7HuwAjWsvDYIZL/8LscrwisaB4C12+EHcMZOvS4gZXtsVEtd0inEjVqBuj1tWkpcy04oGN5Iro9Do9JM43oqDxWOWD0vxXESXOatpxAPsx80FYe8Rnmu6/ILXBf56IaQM75GaRq+/nTHCD2zeOfKFmGnGT4IHq2O6zqZXeytb5tL6hPdDZsHTbF7L6yNxGxrF/VaCxiSiocvF0aMsnjPRYEti8vKd/oXKfz8AjWSzOWdnfnLii0vL8F4ljST3GKNkyu3tkMpXcHlncaB+nOPlKtSql/BX4NfUpPaJ45qWM63EVaERHB6WnZ2SxsgYOiiOi2hg9EoaL0BjlJ030iXF7xDQqR8N8Hd23EYeWzR+IiZKV9mloNOp0lgeeL7DI8SJVXVdte/bwwJoJtUBz2uZRq4bvTVPmETMCPG48jDLJhKNXM8E710aibh/h9dk6Tpl+B2pabSh5uUdVqNI5mcSSRdKLKPmnkSVRrDSk0Fz9ee6bWJEhwcafTDRmTcEYTSemBhPXYjrN3HeKzyLSNcY3bqs/Gst05iS8jLxlF+RXWFO5Au5Zk59l0ai0cjjVhfXSNI4pPK9qJzGMCLrAu/tXNU0kp/B4bHkSxOeSFUvq7zJ9E+C15sdWHmPz4U0V3MGlFtxu1SJfu5coTEsp2/srKLxpHRqaXYniTK8yJq6/NWnn5NGD9kYsfKmj11UitYtpxHspbhoONlYtPTgQhjt4W745A/x2y+yanM80Lgo/5yUWtXPquudYSAtSaOgkfvvgkaPiEtkT0zQDmMl8bp3vfPecy1z299udzkv5pQ4lzhN5qy69+ZWyE5KLXET7DizslkQ2umounUieFjwmDdZdUeYEbC6fz9/KW8fySqhX8nSSO4Ou93wwu+hCaIzv4Ax4sbosaFxgXGKd31+VMBcfhMpe+By4U0jyhxGaVTKDpDF/9pl9EWco7MhNCoKEpFM2Jdgw+7i4Ln3UNR67pnVF/TEn9k8Tienh0HF3T2pL9JZU5fiuzNO+oTxm+bTM1e4ecSzty3Cr3lhm/c8R+6vXo7H4xJQXak0fnEyVszLSo+Xl+WJPxkepydudIIV3l0TZcfKg9yu3YfP7NjsWAwHVh5VffCwpJ+/sGWtUXdmUXwS75osLxd+5cIFKfLXx5dTbY+HgyP3NGcQ53LBOO/6ZHW88UNV4b7neVe9izqi17+5Ub4lCtU7R3x+MdorT23Eq0W5/uO74z8q+ORWUZ1B+QAAAABJRU5ErkJggg==;" vertex="1" parent="1">
          <mxGeometry x="90" y="410" width="126.19" height="60" as="geometry" />
        </mxCell>
        <mxCell id="qYTeN8mtzP5acfvbm5ag-8" value="Fournisseur" style="shape=image;verticalLabelPosition=bottom;labelBackgroundColor=default;verticalAlign=top;aspect=fixed;imageAspect=0;image=data:image/jpeg,/9j/4AAQSkZJRgABAQAAAQABAAD/2wCEAAkGBxISDxIQDw8VEBUQFRcVFhAVEhUVEBUVFRcWFhURFRYYHSggGBolGxgVITEhJTUrLi4uFx8zODQsNygtLisBCgoKDg0OGhAQGC8dHh0tLS0tLS0rLS0tLS0tLS0tLS0tLS0tLS0tLS0tLS0tLS0tLS0tLSstLS0tLSstKy0tLf/AABEIALcBEwMBEQACEQEDEQH/xAAcAAEAAgMBAQEAAAAAAAAAAAAAAQYDBQcEAgj/xABJEAABAwECCQcICAUEAgMBAAABAAIDEQQhBQYSMUFRYYHwBxNScZHC0RQVImKhorHBIzJCVHKTs9IzNFOS4SREgrIWo2Nzgxf/xAAbAQEAAgMBAQAAAAAAAAAAAAAAAQMCBAUGB//EAD4RAQABAwEEBQoFAgQHAAAAAAABAgMRBAUSIVITMUFRoQYUFTM0YXGBkbEiQsHR4WLwIyQychZDU5LC4vH/2gAMAwEAAhEDEQA/AO4oCAgICAgICAgICAgICAgICAgICAgICAgICAgICAgICAgICAgICAgICAgICAgICAgICAgICAgICAgICAgICAgICAgICAgICAgICAgICAgICAgICAgICAgICAgICAgICAgICAgICAgICAgICAgICAgICAgICAgICAgICAgICAgICAgICAgICAgICAgICAgIOXYzT2gYRtIZaJmMD2UDZpA0fRRVAaHAC8k7yudqbtdNeInD0Wz9NarsRNVMT1vOLfP94l/Ol2ettWv09zmlveZWOSPo+mYStAzWmX82Q6vW2qY1FyPzInQ6efyQyNwzafvMn9xOrWVPnV3vY+jtPyhw1afvMn9xTzq53o9HaflY34TtH3mX82Qa9TtiidTc72caDTx+SHw63TfeJfzpdvr7FHnFzmllGisR+SPog2yb+vL+bLt9bYo6e5zSnzSxyR9Ei2zDNaJfzpdvrbFPT3OaUeZ2J/JH0fXnGf7zL+dL+5POLnMjzHT8kHnCf7zL+dL+5Onuc0nmWn5I+j48slOeeX82XZ621R09zmllGksckfQba5f60v5suz1tqdPc5pPNbPJH0R5TJpkeeuR51aztTprnNKfNbPJH0Rz7+mf7neKjpa+aTzazyR9Ec8/pHtO3bsTpq+aTzazyR9H15VKM00g6pJBr1O2Kenuc0o81s8kfR9i3TjNaJh/+0u31lPT3OaWM6KxP5I+gbfOf9zN+dJ+5POLnNJGi0/JH0fHlMv8AXl/Nfs27VHT3OaWXmtnkj6Mcs8pF1olB1iaQatR2p09zmknSWeSPovuIL3mxDnHOe7Lfe95e6lbvSJJXUsVTVbiZeZ19EUX6opjEcPssauaYgICAgICAgICAgICDmOM389aPxs/TiXJ1frZ+T1ezPZqfm1jdG7urWb43Ru7qANG75IHh8kB3HvIDtO/vIDtPHSQSePagg8dqCePgggaOOigN0bu6gDjsCAgHjscgO07+8gk5+NqCAgkeHdQQ3Ru7qDoGIv8AJj8bvkuxpvVQ8ptP2mr5fZYVe0BAQEBAQEBAQEBAQEHNMah/rp9rmfpxLlav1j1Gyp/y8fGWpbo3d1arpDdG7uoA0bvkgeHyQHce8gO8e8gO08dJBJ8fmgjj2oJHh8kEDRx0UBujd3UAcdgQEA8djkB2nf3kEnj2oIQSPDuoIbo3d1BfsQz/AKQ7JD/1YfmuvpfVQ8rtT2mr5fZu5LZG05JeKj7Iq5w6wL1dVXTT1zhz8Pjzgz1/ypf2rDprfNCd2UjCEetw643j4hT0tHNBiU+cIv6rB1uA+KyiumeqUYZo5mu+q4O6iD8FkPtAQEBAQEBAQc1xr/np+tn6cS5Ws9Y9Rsn2f5y1DdG7urVdIbo3d1AGjd8kDj2IDuPeQHad/eQHad/eQDx7yAeO1BPHtCCBo46KA3Ru7qAOPdQBx7EA8dhQDp395BJ495BHHxQSPD4hBDdG7uoLhim4+S5IcWh8rqkXOoI2XA6OsX6qZ1vdLNrTRVDzG0ozqp+ENm22NaKRsuGq4da8le2z+KcRn3zKumyeXnoe0eKo9MV8seLLoY73xJhIin0ZOUaAAt1E6XbCs7e1K65nhEYjPaibUQ8MmNcQJBzg0PpNN4zj0SV2LdrX3KYqoszOfdLSr1elomYquREx74YpMYYTe6IHa5n+FfGl2rTxizP9/NT6R0M8Olj6vRYcOMJJicWludpflRGgJySKkx5jQ0G+lFnb12qsXIp1NExE9/8AK+mqzdpmq1VFWO5ZLBbGTRMmjNWyNDhW40OgjQRmIXoaqZpnEqaK4rpiqmcxL0KGQgICAgIOaY1/z0/XH+nEuVrPWPUbJ9n+ctSNG7urVdIbo3d1AGjd3UAcdgQDx7yA7Tv7yA7Tv7yAdO/vIB47Sgnj2oIGjjooDdG7uoA8O6gDj2IB47CgHx7yCTx7yCOPigkcdoQBo3d1Bb8Uv5dg9aU9jYx81fqPZI/vveZ1/tdXy+0PWvm8rEoMMv1o/wAfcetjT/n+H6wxqUayQVcSRc003hfddnxnTW5/pp+z5HtOvd1Fyn+qfum2TaBwVt1S1LVHbLx2O1mK2WcE0E9Yxqq5zQxxGyTmzuOted8obEXNLM440/ij5dfhl7DyamM1/GIX7EnCIbJJY3XU+kjB1GhLeuha7rLlTZuecaa3fjrmMT8Y4eLoaX/BvXNNPZO9T8J4+ErijoiAgICAg5pjX/PT9bP0o1ytX6x6jZXs0fGWpHHurVdIbo3d1Abo3d1AHHY1A4+KAfHvIDtO/vIDtO/vIB8fmgce0oHHwQBo46KA3Ru7qAPDuoHHsQDx2FAOnjpIB8e8gce1AHh8kFwxS/gN/FIPdiV+o9kj++95nX+1z8vtD1r5wsSoGGb60f4z+m9bFjqr/wBv7MauxT7VIGZQGcPeOxxB+C+5bLrzobM/0U/aHyPaFvOuvZ56vu8VmhyzU5hxRblMZa9yvdhp8bJfp7M1txrQEaDlx07Fq6yiK5iieqcw7+wbk2tPeud3HwlbrRbMh8NsY30riOu9xbvLpWdTV5fYGaKr+hr66eMfLh+0urtavFWn11HV1T8J/uXTrPM17GvYate0OB1hwqD2LcmMTh2YmJjMMiJEBAQEHM8av5+0fiZ+lEuVq/WPU7K9mj4y1Q491arog0bu6gN0bu6gDjsagcfFAPHvIDtO/vIDtO/vIB07+8gHjtKCePgggaOOigN0bu6gDw7qBx7EA8dhQDp395APj3kE8e1BDfD5ILfil/Ab+OT/AKRrY1Hsn9+95jaHtc/L7Q9i+bytFAxTfWj/ABn9ORbFjqr+DGrsaS3YtF8jntmyQ9xdkllaFxq6hBF1SV6nQ+WF/TWKbM24q3Yxnj1ODqvJ3T6i7VdmqYmruw+fMEobRksd3qOHzK6dHl5Mf6rH0lza/I+1M5i7PziFew9i1O0RyZAlcyVhHNte99KguuDTQUHBW/pfK7TamrFVG5jjmZjHw+bOjyeu2Iqim5mKoxjH8rBHgd/k7Yn0yiS5oqckEOLgypFb2ul0XV2Lgxt+1G051lNM7sYiY7ZiYxM/WIlv1bJrnZ/ms1Zqxwn35zC24pueIOakbkmM+jeD9G4ktzajlNpqaF6mnW2NZ/jWJ/DLHRWL1ixTavY3qeHDu7G8WTaEBAQEHM8ah/rrRtcz9KJcrWeseo2V7PHxlqhx7q1XSBo3d1Abo3d1AHHYEA8e1APj3kB2nf3kB2nf3kB3j80E8e1AA47EAaOOighujd3UAce6gcexAPHYUA6eOkgn/PeQOPagN8Pkgt2KX8Bv/wBkn/SNbF/2T+/e8ztD2qfl9nsC+bysSoGGf60f4+48K+xPCv8A2/sxq7HjOCjz/PG1WilQeY5wCAUAGTkgXi7TrWzGviLHQxap6sb2OLHo/wAWctkuesEGG05mnU9vvHIPscVsafjNVPfE+HH9GNT24HtIMtAc2Uwjbc4f9H9q9f5M11RRVRPxaeqjjlvl6lqiAgICDmmNhHl09+ln6ca5es9Z8nqNlez/ADlqRx7q1HSG6N3dQG6N3dQBx2NQOPigHjscgO07+8gO07+8gHx7yBx7SgcfBAGjjooDdG7uoA491A49iAeOwoB07+8gHx7yBx7UAeHyQWXFzCEUVmD5pWRt557Q5zgBUxRnJrruPYtuu1Xc0u7RGZeZ2lMRqZn3QxuxosYz2th/CC74ArxlOwtfVPqZ+bHp7fewOxysQ/3J3Qy/sV0eTm0J/wCX4x+6POLfegY02OQgMtbWOBqC+N7W5iKHKAGnWpjYeus5mqzvRMY4TmfBHT0T2to22ODQ9wbIw387FVwprybzTaCepcyrTUTVuRmmruq/f91sVT8XtjeHAOaQQRUEGoI1grUroqonFUYmGUTlKxSxWr6h2UPYQVfpvWRHf+zGrqY8CmlqcP8A5K+7I34uC9T5OVfjmO+GrqY4LevYNMQEBAQUvGDFCae1PtEcrGh+TccrK9Foacw2LWvafpJznDp6TaMWLe5u5+bn+OeG48HWgWaQieTJyntifXm60yQ/KA9Ii+mqmsJa2VXcjMVNv03TyeLTWXHiOR7Y4rLPI95o2Nga57jqABqc3sWU7HuRGZrhPpu3ySvmDcX7XI0PkhbZh0ZJQXjNnEbXAZhnK150P9Wfkn0zTyT9XqbixKbmywuI0CR1dGqPYo8xnv8AAjbNHL4q3jObTYWmSWwyyRtzzRPY+Juf61BlMG1wAVlvZu/w34gq21RHVRKqHlDj+7P/ADG+C2fQtXPH0Yem6eTxQeUNn3V/5o2+rtKehaufwPTccnitWLBtluaJIrA6KJ2aaabIY7awZBc8X5wCNqoubNijhv8AgmNtRyeKyPxfLfRktFnY4/ZMzgfa0FVeYT3+CfTNPJ4sOEcXbWxmXFEy03VyGTZLz+HnGgHtSNDmeNWPkemaeTxUC1Y8sikdFNZJ4nsNHMdRr2nUQbwtmNj1zGYrg9N0cksY5QYP6E3azx2J6Fuc0eKfTdvlnwfQ5QLP/Rm/9ez1tgT0Ld5o8T03a5Z8E/8A9As39Gf3P3bFHoW7zR4p9N2uWfD90HlAs/8ARm9z9yn0Nd5o8Uem7XLPg+H8oUOizynrc0eKmNi3O2uGM7bo7KJYJOURv2bKT1zAa9TDrKzjYs9tfgwnbfdR4/wvGKDH2+yi0tDYgXObkF5cfR01DRrWte2dFurd3vD+VlG196M7nj/Ddf8AjknTZ2n9qq8zjm8Gfpb+jx/hVsf5n4PiieaS885zaBxbSgBrWhqr9Ps2LkzG94fyqubYmn8nj/CpwY5SzQiB0DWwslM1QSZOcyObplGgycmt1K10rq2tNTp6cb2ZcjVamb9e/jDWWnCzGXEEnoh1+/UrqaJqa2Xn8/s/pu/uCz6Ge8yzw4aiOcuZ+IXdoWM2qoMrRi3jBJZ3h0bspjryyv0bx8jqdn6xcuVtLZdnXW5puRirsntj+Ftu7NE8HULJOwNZPEawz0JHQc67LpovucNBv0GvzS/Zub1Wnux+Ojq98R2fs6NNUY3o6pbRcxaw2v8Ahu2A+xX6b1tPxY1dT5s7WsnL8o+k6MH0TkgmRgAys1TQ3Z16Tydt3d+K938PGM+9raiYxhbV7VpCAgICDDa5C2N7mipa1xA1kAkBExxl+UsaoX2nC0jIGmWSd8Ya0Xue90bKknaakk7Suhorn+XiqpbrKIov1U09UfsvdvtsGL0DbNZGNtOEZ2AyzkVEYdmAGelfqs00ynaAcKaar871U4phR1KdLZbVbTzlvtkkhN+QXZVOpv1WdQCviaKeFMMeKW4rxtoWSyMcMzqtqDruAKnfz1wN9gbHm34Oe1tpkNvsxuIeazMb6rzfudVppS6tVVXZor/08JTEzDFyiYpWc2duF8FEOss18kbc0TnGmU1v2W5Xolv2TsN02L056OvrJjthnxBxSs0Fk88YXoIWjKhgcKh/Re5v2yT9VuY5zcsb96qqro6CI7ZY8O45W7CLiGymwWY3NiYSJXt0GR4ob9VzdhzlRaoo6+MkzMtGMV4SL3yEn7WU39qu6SUYZ7BPbcGkSWG1OLQamzuvY4aaxn0XdYodSxqiivhVBxhdrQ2zYy2Jz42iz4Qsrfq1z6mF32onGtCb2H3teN7T18eMSy63HILGTMIX1jdlFjgRe1zaggjWCKLoTVG7vQwbg4tN0WgflnxVfTJw9+GsRvJnRNNrD+ehjm/hEU5zK9D6xrTJz7Vr6fXU3omYjqnHWmqnDwf+Nt+8f+s+Kv6ZGGSy4rtfIxhtNMt7GV5o3ZTg2ufasbmoiiiau6Jn6EQ9OGcTWQWiWAWrL5pwGVzVK1aHVplXZ1VpddTqLNN2nqq/+Jqp3Zw61yNWQeagMquTPM3NqcL1rarjcysorxC8+RjWVRhl0kuY8u9hrZ7E1pNXTuF+j0Kk+xbejndqmfcrrqmXKMJPbCxrIzeRdsb0jtK2aKN+cywYMF4GdN6Tnc2031N7ndQ+ZV1VyKeCG9ZixABeXu25QHwCr6SU4a/CGLBa0uhflU+w6gO52ZZxd7zDwYIthjfzb6hrjQg/ZdoOy9LlEVRmB2Hk8wiHtkskt4cC5oPY9u8UcOpy8H5VaOadzWUdccJ/SW7pa+uiVxjkkYA10bpCLucaWekNBcHOFDrXj66bNyd6Kt3PZMT+nY24mYJpXua5ogeMoEVLo6Ct1TRxUW6LdFcVdJE490k5mOpnynB5AblNfzd9RQZL76gmukUpVen8mtZbpomxOczOfd2NbUU9q1r1zTEBAQEBByGz4BjsOGcKYSnhMcNmhElnB+q8uj+lMROkZLmUGbnBootjezbi3HemZmZzLl1ikfaJpbdaDlSTvc6uqpvpqGgagFt1/hiKI7Fb3vkDbz/lVJfbnyNblOZI1vSINBtOpRvR3j5NCL7wd4KnI33JdM1totOCZ/Ss1vieWtrmeG0e1p0Esyr/AFGqL/GIuR1wmnuYuUnCflWEjZG+jZsGgMEQuYZaAEkerTIGrIOsqbMbtG92yietpiUExh7hlMie5vSDTf1a1G9EcMj5a8G8f5GwqRisWEXYPtsNvirRrsmZg+3G654prI94NKsx0lE0T8kdUtpyqWJkWG45o/qWuNk9RmJIcwuHXkh3/JY2Kpm1MT2Jnras2lu3sWMSN/jnbmmaACtG2SEZtsi4mw6Zps3JntuVfouv9cfBX/KhqPsXbypZ7Ba289EaG6WM++1UanjZrj+mr7SmnrhscbbY02+0kV+uNHqNWlsWN3QWonu/WWd71kuhcjtjtkdheJLOGxyyumhkdKAXxyBpByQCQLq1NM+bXu35pmrMMIX3Il6DPzD+xUJc15ZJnAWSORrRfJJUPLiLmM0tFLnOV9ntRKq49YiRWeKwWnLo+dgE8JJOU4Nyy9upoJDCPw6aq+1fnjCJho0H3DzjhWNj3DWLhurn3KJriOuR8Zdag1qLiDUOB1EHMpzkabGCxAt51ovH1tozV6xxmV9qvsRLdYs4WfGYrRHQvboOYubUFpp0hUf8lp63SUai3XZr6qmVFU0zmFwbyjWjTZYj1SPHdK8tPkfY7Lsx8o/dted1dz7HKPNpscdwJ/jO0AnoLD/g61/1p/7Y/c87nubvFPDvnC1sa6EQPha97Tz5cHVLA5uTkCppUjqK29FsKdDVvU3N6Jxnh3Ir1G/GMOoLsNcQEBAQEGO0QMkaWSMbI1woWOaHNI1EG4hB+b8LQtZabTGxgjay0TNaxoo1rWyvAaBoAAot6J4QxRgiIOtFXfYZlNG3KAytwKruzMQQtdphgFngdHMXzP8A4sV1GeiailKtIdRoqTlAkrWZKZKxrZJGs+q15A1DW0dRqNy3Kc44sVw5J7KyXCL2ywslayzveHPY1xY/nImtLSR6JLS/MsL04pTDHyo2GKHCOTDCyEPhY9wYxrMt7ny5UjqC9x1m+5LU/hRKpNYHPjY7M57Qdor9Xfm3rOqcQLnZYYDZ53SSOZM2ghiAGS70Wlt2TeC4uabxkhtbs61I4slXw0xonBbncyrtxo1x2kfBX2s4RKME4OZabTBZ5WlzJpY2OANCWl7cqh0XVVs1TTEzCHVsdcQoH2H6Czumns0TIrNWRxc1jXN9EVcAfRre6q1qLkxPX1pw5d/4HhM/7CT+6IfF6uiunvRht8YMScIyyxujsT3BsEbCcuIUc3Lyhe8awuds23Nm3VTXwmapn5ThZcnenh3NcOTvCn3F35sH71v79PerwzWXk9wm2SNxsRo17CfpYcwcCft6gq7tUVW6qY65ifsmOuGbD2JGEpLVNJHYXua9wIdlxCvotGYvrnqqNnUza0tFFfCYjj9ZZXJzVMw7LidZXw4OskMzSySKCNj2EglrmtAIqLs+pWVzmqcIbhYjlvLLg2SSSzOYxzwWSNNATShYRWmatT2K+xMcUS1XKbaTIMHvIIDrLlAG4gvycsddzexZWoxlEqLIMwJoC5oJ1NJAJ7FbIu2DoLNkTC0PfGWMAhYwG80dcKChIOQMk0FDXaNPrZcFaw2BlxG7LLXZVNIFKE760V1nOES1dtpzUlc2Q74FbFPWxafFq0fXZW8UePgfkrr0dpC5WOzukaBFYYpKGnOF8wLrgaECZorQjMAuTfrim5uzemmZ44xE/wDjKymOGcIttjkDJK2OGKjHVIllLm+ifSFbQb9x6lFu7TVciIvTPu3f/X9THDqa7BEeRaIXOlc1rZGFxy3NoA4VdWt1BfVb/Fg/TTHAgEGoIqCDUEaDXStFk+kBAQEBAQcM5UcDus1vdNT6K2Eva6lzZLucjJ1k+ntyjqK2bVWYwxlU2khzXsdkubmOcX5wRpCsmM9Y9UmFJnNyfQZX7TQ7K/41Nywi1ESZeEkMbxUqwdh5HcAOhsz7ZKKPtmTkg5xC2uQf+RcT1ZK1rtWZwmHn5ZMCOdHHboxXmAWTAC/myatk6muyq7Hk6FNmrHAlyhwDh16R8VsIexmFJw3Jqx3rFpyusgGhKqm1Tky8t9S5zi5zr3OOc/4VkRgXnkjwI6a1m2ObSKy1DXaHzOFKDWGtJJ2ubtVV2rhhMOzLXSICAgICAgICCi8rWAnT2RtoiblPshc4tAq50TgOcDdoyWu6mkaVbaqxOJ7US4w1wc268FbKHqiwhM1uSHNcBcC9pLgNAqCK71XNqmZyZYHElxe9xc453H4DUNiziIgWvkywD5XbBI9mVBZvSeSKsfJT0Ir7j0j1DpBV3a8RhMOxvwFZSC02SAg5wYY6HruWvEzCWhtnJtgyR+WbNkmlKMe9raCtAG1oM5zLPpakYeeTkuwdkkNZIwkEBwlJIqCK0NxUxeqMPHDyUwtc17bZOC0gg5MVxBqDe1T009xhf4m0aAXFxAAyjSpppNABXqVKX2gICAgxSzhuhx6mkjtRMRlgdhBo+y7sUZZbktdhpkFqgfBaIstj9FQCDoc06HDWpirHGE9G5Fhfk8tUTibI8WhmgFzWTdTgaMJ2gjqCvpvUz18GM257GqbirhInJ8jeNpdEB/dlUWfSU97Hcq7ltxU5PQyRs+EC2UtvFmaax10c64j0h6ou1ki5VV3uyGcWu90/zkegO1UZZdG+ZMIFwLXMaQRQg3gg5wRpTeOjcuxh5Ojlukwe9rA418meTkt1iN9Dd6pza6UAvpv97GbXcrUmKmEgaeRE7Q+Ig7f4it6WnvYblXc2+BeTu0SODra8QszmJjg6V3q1Hot66n5rCq9HYzi1Pa6vg+RsETIYImRxxijWAGgHbedJJvJWvNUyz6OHo85P1N7D4qMnRwjzk/U3sPimTo4POT9Tew+KZOjg85P1N7D4pk6ODzk/U3sPimTo4POT9Tew+KZOjhPnJ+pvYfFMnRwecn6m9h8UydHB5ydqb7fFMnRwnzk7oj2pk6OHOMaeT5s0jp7C5tnc690BrzBdpLSL2V1XjVTTdRexwljNruVGfE3CbTQWbnNrZIae84FXRdp72HR1dzaYI5OrTI4G2SCBmljHB0x2ClWN6/S6lhVejsTFqe11fBHNWWFkFngEcbBQNDjXa4kipcc5JvK15qmeMs+j972+dPU97/CjKOj96RhQdE9qnJ0b7GEm9F3sTKNyWRlsB+y/+0/JMo3XoBUsUoCAgICAgiiCCwah2II5pvRHYETmUcw3oN7AhmUeTs6DewJgzJ5MzoN7Aowb0o8lZ0B2KcG9J5IzoBRhO9KPJGdAJg3p7zyOPoBMG9J5HH0AmDek8jj6A9qYN+e88jj6A9qYN6TyOPoD2pg35PI4+gPamDfk8jj6A9qYN+e88jj6ATBvSeSM6ATBvSnyRnQCYN6TyVnQHYmEb0nkzOgOxMG9KfJmdBvYEwb0p5hnQb2BSZlPMt6I7AmDMp5tvRHYERlOSNSCUBAQEBAQEBAQEBAQEBAQEBAQEBAQEBAQEBAQEBAQEBAQEBAQEBAQEBAQEBAQEBAQEBAQEBAQEBAQEBAQEBAQEBAQEBAQEBAQEBAQEBAQEBAQEBAQEBAQEBAQEBAQEBAQEBAQEBAQEBAQEBAQEBB//9k=;" vertex="1" parent="1">
          <mxGeometry x="360" y="97.53999999999999" width="127.61" height="84.92" as="geometry" />
        </mxCell>
        <mxCell id="qYTeN8mtzP5acfvbm5ag-9" value="" style="shape=image;verticalLabelPosition=bottom;labelBackgroundColor=default;verticalAlign=top;aspect=fixed;imageAspect=0;image=data:image/png,iVBORw0KGgoAAAANSUhEUgAAADwAAAA8CAYAAAA6/NlyAAAABGdBTUEAALGPC/xhBQAAACBjSFJNAAB6JgAAgIQAAPoAAACA6AAAdTAAAOpgAAA6mAAAF3CculE8AAAABmJLR0QA/wD/AP+gvaeTAAAAB3RJTUUH6AYPEiYLqk77CwAACndJREFUaN7lm1tMHNcZx/8zZ2ZZYFkWds0txjY2WLgECDaOCfEF0QQck6RKJPchalW1Ul5SqWoj9aEvjaqqVfuSSlVb5aFS2twshUgktkJEEttybMcxlo1MYrMYloC5LSw7uzs7e9+Z04fZyywLWcxt3PZIo5kdZs85v/P/zne+78xCoGM5derU/rq6OtPY2Jhvu9pk9ADt6ekpMRjMb1RU7P0hAASDvkAwKN4JhcTzAL0WixmuDgz0Cv8TwCdPPv98eXn12w0NreauriPIyzNgbs6FubklzMw44XTOIRAQEQz6hUgkcCMSCX/KMOyg0YjB3t7e6H8N8KlTpyoKCizvVFc3fr+t7SA6OlrA81zWc9FoDAsLbszPu3D//hzGx+9DEFyIRALxSCTsCIUCb5079/4fH2rgnp6en5WX7//bo48eyu/qOoLKSusDfd/j8WF62omREQcGB6/j1q2rx4eHb11eT1+4rQTt7u6uNJutZ/bsaTnx5JOtaGtrACEsFEV5oHqKi4vgdnthMJjAMAzC4UgNgIcKmOnp6flpeXnt35uajhg7Ow+hrKwEACDLDwarKApu3bJDEEIAWFBKN9SxTQfu6uqqMZtt79fUHGx94olDOHz4AFiWgSw/eEdFMYDbt8chywDHcZDlODbIu6nAzLPPPv/ziora15ubj/AdHS2wWIoAUCjKg/dyamoW9+8LYBgWhDBgGIBlHxKFu7u7ay2W8g/27m1pbms7hMbGfetWVVEU3LkzBkmSQQgHhlFhAQYsS0Cpoh9wR0cHV1ho/k1V1f7XmpoeJ0ePNqG42LRuVSUpALv9PiglIISAZZkEsLqYEMIC0Enh7u7uBoul4sN9+w7WHj7cjIaGvWCY9akKANPTTrhcPrAslwGqPQjR0aSt1p39R48+s6utrREFBcaEousz4dHRCUSjTMqEWZZdATg9hwnRAZjjjJb29mbs2/cIFhYESFIYPM8l5tvaSiAQhMMxC0J4cByTAbuSyoQwiUEl+jktkykfJtMjiTkYgtPphiSFEmqt/r25uQV4vUFwHA+GYcGy2bBppZEAJg/XOmwy5aO2dmcCPoj5eTf8/iAI4VPwlFI4HFOIx5mEY2ITB6MBV6+XK82yjH5OK1cYbjIVoK6uAADg9wcwO+vC0pKImZkFEMKDkLSqSeC0wuwyk062x2xYYXZjmq6t8aKiQtTX70FVlQ2E8BmAyw9C2MRgsBnOSx0A6GfSDJNu+Ny5K7BYTDhwYA9sNst3j3DCZJNwKyusqpmcu2p7KrhuwNp2BUGE3T6J4WEHyspKUFu7E7t3V6C01JzqoHpaWVWt2lonlQZNflfXOZwuJ060wG6fxMzMEiQphLGxGczOLsFmK0ZV1Q5UVloTnaYpBTOPbFgtqPbeeiK4TVRYbfzu3W9hsZjw4ovfQyQSx/z8EtxuEcFgBPPzbthsxeB5AkozFVa98uqw2rBSe62Twmq8TCnF4qIXd+5MYGhoDJWVNtTVVePQoQOIxaLw+4Oa2JpmrLGrw2o/J807qbiiT+BBqQqrKBTt7Y2w2yfhdArw+SSMjExiasqJHTssqKiwppYTSmlKVa3nXR02G1zHwIOmlHM4ZmCzWdDW1gBJCsPpFCCKAQQC6rXFUpQwaWgUXjlB+C6lH2Qp3JLAQ1EAShW43SLs9incvj2G8vJS1NRUobb2EUSjcUhSKDEwSqrz2iUo7ZRyK82yuiusQFEoWlsPwOGYhtstIhKJYXLSCadTgNVqwY4dFo1JL3dE0Hji5aArOzAdNwBUc1YUil27ylFdXQZZliEIIgRBhN8fhizL8HolmM0F4Dg18M9M6pkVB2B1lWliWui0DicdUdLMGIaF1VqM0tJiyLKCQCCMQCCcsQOyXMU0KJOKl1dWWU0odIy0GFCK1HJDKTKiKoYBCguNKCzMS/1N9dJMRtqYCa39nJ0Lq45PxzlMqZLaVE8GIpln7SBQTTiaVlJ7Xs3EWVZNJdU9LUUvhalGudyQ6j2aAaM9Z6udHgBtFqXrBoCqMM0BmT4rCpMFuRKs9l7SnAlh9Q48kAotvwtSqz7DKDkhs//GJHZD4/j0036wLE8FwbOoi0nLMuBy+TKWndXms+rgcuXY6fmdntOAxyPg3Xf/ibk5d2x0dPTN+fnJmzoorIDjOLjdIlwuHwwGDoWFRhQVFcBgIFleWwXPZY7ZJn/37jB6e99DOExdN258+XuXa+5tAF5d0kOeZ0EIn4KTpDD8/hB4nsBoNCA/3wCDgc9waGvZMqJUNeHPPjuHwcHr8PvDQ199deHX4XD4CwAxnbZ4AEI4GI2GVNakzaDC4ShCoQhYloHBwMNo5HO+F06u316vgN7et7Cw4I6Pj3/7r5GRoT8DcGw4c9joHCaEhdFoyILVRmCKQiHLCiQpnKVyEjB5BgC7/RucPduLUEjZFBPeVC/N8wR5efyKsOlraMDlDFBticfjuHjxE9y8eQOiGNo0E97UOcxxq5v0StfRKFLhpVZdUfTgww/PYHHRHR8bm9hUE9404Hhc9l29+qW5s/M4LJbi1J6xVlk1gfDDaCxIvVnU7oVRCoyOfo2BgbMJE776O5dr7h0AW/ZDtXVvDhUXmwcdDseRK1euWc+fv8RGInFYraUwm4vA81wiDJTxS8ePMeqdRbv1cVAKCII/sfso49KlAVy+fAGLi56hL774/GVJ8vQBCGILy0a3AfNMJuveurq6l2y2shcslpJ6o5EnnZ1P4dixdlRW7sBMaALXfRfxA9tP4PMFMTIyjUBARH//B3C7PZidnfYODl7pAXBtK0x4s4Ez4IuKrDX799e/ZLWWvWg2m+p5npCuri4cP34UVVXl8Hol9PV9ggsXPgaQB46TIYrue/39/Z0AZrENZat+mJYBbzIV1HMcS5qbmzA4eANFRSVobGwBpQFcv37F3tfX99R2AW/V77Qifr/bfvPm1d8C+ENJSUldY2Pr6wD79GOPNePw4XZwXCG+/vpLbHdht6GNiMfj+Wb37oqPTp58Gq+++gtUV+/alLcIDytwekkgBAaDAXoWbrsaauWmKmtdF0GuCyhd8IITA4A0jqhxvrBvG4HXbVenT5825Ofn/2otdZxgRmt+ZL75MnnUxCxf+elkCOfHrcPvGZ46s5Z2Y7FY/5kzZ4a3XeGSkpL8ggLTn9rajuV89sDwv8HUF4M89wZALJnAE6/hsb9ONXm7XmjKVc/ExD18/PHZPQBeWe9u3oZMurTUgueeeybnc7Lrc1BQIFoIsHnLJnYejLJhTfUMDABnz8p5G7HMDQGHQlHcuzeT8zmzU0KVUQHEbwDGmKlwxI+gN46FNdSztCTq67RisTgWFnL/LwYjhKGUUxUY/PIVG2FRWVM96os5HYEDARFDQ5dyPtcyM4t9exUgLmUDx+KQhPCa6nG7l/QD9ng8UUrppdnZmeKcc31yrvJgVazc9ORIVpPRCQ8ETzx47drle2tp1+fzLW4EeKPhTgEAc66HXuFRcZrFuQors5MxZDbpX1CC/4ji7Tdl/GWNeTAFsLjezGo747ui/cAxHsjX3hwFfHFgAsC325Ee/t+V/wAOdGYZiA+oxAAAACV0RVh0ZGF0ZTpjcmVhdGUAMjAyNC0wNi0xNVQxODozODoxMSswMDowMBf693AAAAAldEVYdGRhdGU6bW9kaWZ5ADIwMjQtMDYtMTVUMTg6Mzg6MTErMDA6MDBmp0/MAAAAAElFTkSuQmCC;" vertex="1" parent="1">
          <mxGeometry x="650" y="220" width="60" height="60" as="geometry" />
        </mxCell>
        <mxCell id="qYTeN8mtzP5acfvbm5ag-10" value="" style="shape=image;verticalLabelPosition=bottom;labelBackgroundColor=default;verticalAlign=top;aspect=fixed;imageAspect=0;image=data:image/png,iVBORw0KGgoAAAANSUhEUgAAADwAAAA8CAYAAAA6/NlyAAAABGdBTUEAALGPC/xhBQAAACBjSFJNAAB6JgAAgIQAAPoAAACA6AAAdTAAAOpgAAA6mAAAF3CculE8AAAABmJLR0QA/wD/AP+gvaeTAAAAB3RJTUUH6AYPEiYLqk77CwAACndJREFUaN7lm1tMHNcZx/8zZ2ZZYFkWds0txjY2WLgECDaOCfEF0QQck6RKJPchalW1Ul5SqWoj9aEvjaqqVfuSSlVb5aFS2twshUgktkJEEttybMcxlo1MYrMYloC5LSw7uzs7e9+Z04fZyywLWcxt3PZIo5kdZs85v/P/zne+78xCoGM5derU/rq6OtPY2Jhvu9pk9ADt6ekpMRjMb1RU7P0hAASDvkAwKN4JhcTzAL0WixmuDgz0Cv8TwCdPPv98eXn12w0NreauriPIyzNgbs6FubklzMw44XTOIRAQEQz6hUgkcCMSCX/KMOyg0YjB3t7e6H8N8KlTpyoKCizvVFc3fr+t7SA6OlrA81zWc9FoDAsLbszPu3D//hzGx+9DEFyIRALxSCTsCIUCb5079/4fH2rgnp6en5WX7//bo48eyu/qOoLKSusDfd/j8WF62omREQcGB6/j1q2rx4eHb11eT1+4rQTt7u6uNJutZ/bsaTnx5JOtaGtrACEsFEV5oHqKi4vgdnthMJjAMAzC4UgNgIcKmOnp6flpeXnt35uajhg7Ow+hrKwEACDLDwarKApu3bJDEEIAWFBKN9SxTQfu6uqqMZtt79fUHGx94olDOHz4AFiWgSw/eEdFMYDbt8chywDHcZDlODbIu6nAzLPPPv/ziora15ubj/AdHS2wWIoAUCjKg/dyamoW9+8LYBgWhDBgGIBlHxKFu7u7ay2W8g/27m1pbms7hMbGfetWVVEU3LkzBkmSQQgHhlFhAQYsS0Cpoh9wR0cHV1ho/k1V1f7XmpoeJ0ePNqG42LRuVSUpALv9PiglIISAZZkEsLqYEMIC0Enh7u7uBoul4sN9+w7WHj7cjIaGvWCY9akKANPTTrhcPrAslwGqPQjR0aSt1p39R48+s6utrREFBcaEousz4dHRCUSjTMqEWZZdATg9hwnRAZjjjJb29mbs2/cIFhYESFIYPM8l5tvaSiAQhMMxC0J4cByTAbuSyoQwiUEl+jktkykfJtMjiTkYgtPphiSFEmqt/r25uQV4vUFwHA+GYcGy2bBppZEAJg/XOmwy5aO2dmcCPoj5eTf8/iAI4VPwlFI4HFOIx5mEY2ITB6MBV6+XK82yjH5OK1cYbjIVoK6uAADg9wcwO+vC0pKImZkFEMKDkLSqSeC0wuwyk062x2xYYXZjmq6t8aKiQtTX70FVlQ2E8BmAyw9C2MRgsBnOSx0A6GfSDJNu+Ny5K7BYTDhwYA9sNst3j3DCZJNwKyusqpmcu2p7KrhuwNp2BUGE3T6J4WEHyspKUFu7E7t3V6C01JzqoHpaWVWt2lonlQZNflfXOZwuJ060wG6fxMzMEiQphLGxGczOLsFmK0ZV1Q5UVloTnaYpBTOPbFgtqPbeeiK4TVRYbfzu3W9hsZjw4ovfQyQSx/z8EtxuEcFgBPPzbthsxeB5AkozFVa98uqw2rBSe62Twmq8TCnF4qIXd+5MYGhoDJWVNtTVVePQoQOIxaLw+4Oa2JpmrLGrw2o/J807qbiiT+BBqQqrKBTt7Y2w2yfhdArw+SSMjExiasqJHTssqKiwppYTSmlKVa3nXR02G1zHwIOmlHM4ZmCzWdDW1gBJCsPpFCCKAQQC6rXFUpQwaWgUXjlB+C6lH2Qp3JLAQ1EAShW43SLs9incvj2G8vJS1NRUobb2EUSjcUhSKDEwSqrz2iUo7ZRyK82yuiusQFEoWlsPwOGYhtstIhKJYXLSCadTgNVqwY4dFo1JL3dE0Hji5aArOzAdNwBUc1YUil27ylFdXQZZliEIIgRBhN8fhizL8HolmM0F4Dg18M9M6pkVB2B1lWliWui0DicdUdLMGIaF1VqM0tJiyLKCQCCMQCCcsQOyXMU0KJOKl1dWWU0odIy0GFCK1HJDKTKiKoYBCguNKCzMS/1N9dJMRtqYCa39nJ0Lq45PxzlMqZLaVE8GIpln7SBQTTiaVlJ7Xs3EWVZNJdU9LUUvhalGudyQ6j2aAaM9Z6udHgBtFqXrBoCqMM0BmT4rCpMFuRKs9l7SnAlh9Q48kAotvwtSqz7DKDkhs//GJHZD4/j0036wLE8FwbOoi0nLMuBy+TKWndXms+rgcuXY6fmdntOAxyPg3Xf/ibk5d2x0dPTN+fnJmzoorIDjOLjdIlwuHwwGDoWFRhQVFcBgIFleWwXPZY7ZJn/37jB6e99DOExdN258+XuXa+5tAF5d0kOeZ0EIn4KTpDD8/hB4nsBoNCA/3wCDgc9waGvZMqJUNeHPPjuHwcHr8PvDQ199deHX4XD4CwAxnbZ4AEI4GI2GVNakzaDC4ShCoQhYloHBwMNo5HO+F06u316vgN7et7Cw4I6Pj3/7r5GRoT8DcGw4c9joHCaEhdFoyILVRmCKQiHLCiQpnKVyEjB5BgC7/RucPduLUEjZFBPeVC/N8wR5efyKsOlraMDlDFBticfjuHjxE9y8eQOiGNo0E97UOcxxq5v0StfRKFLhpVZdUfTgww/PYHHRHR8bm9hUE9404Hhc9l29+qW5s/M4LJbi1J6xVlk1gfDDaCxIvVnU7oVRCoyOfo2BgbMJE776O5dr7h0AW/ZDtXVvDhUXmwcdDseRK1euWc+fv8RGInFYraUwm4vA81wiDJTxS8ePMeqdRbv1cVAKCII/sfso49KlAVy+fAGLi56hL774/GVJ8vQBCGILy0a3AfNMJuveurq6l2y2shcslpJ6o5EnnZ1P4dixdlRW7sBMaALXfRfxA9tP4PMFMTIyjUBARH//B3C7PZidnfYODl7pAXBtK0x4s4Ez4IuKrDX799e/ZLWWvWg2m+p5npCuri4cP34UVVXl8Hol9PV9ggsXPgaQB46TIYrue/39/Z0AZrENZat+mJYBbzIV1HMcS5qbmzA4eANFRSVobGwBpQFcv37F3tfX99R2AW/V77Qifr/bfvPm1d8C+ENJSUldY2Pr6wD79GOPNePw4XZwXCG+/vpLbHdht6GNiMfj+Wb37oqPTp58Gq+++gtUV+/alLcIDytwekkgBAaDAXoWbrsaauWmKmtdF0GuCyhd8IITA4A0jqhxvrBvG4HXbVenT5825Ofn/2otdZxgRmt+ZL75MnnUxCxf+elkCOfHrcPvGZ46s5Z2Y7FY/5kzZ4a3XeGSkpL8ggLTn9rajuV89sDwv8HUF4M89wZALJnAE6/hsb9ONXm7XmjKVc/ExD18/PHZPQBeWe9u3oZMurTUgueeeybnc7Lrc1BQIFoIsHnLJnYejLJhTfUMDABnz8p5G7HMDQGHQlHcuzeT8zmzU0KVUQHEbwDGmKlwxI+gN46FNdSztCTq67RisTgWFnL/LwYjhKGUUxUY/PIVG2FRWVM96os5HYEDARFDQ5dyPtcyM4t9exUgLmUDx+KQhPCa6nG7l/QD9ng8UUrppdnZmeKcc31yrvJgVazc9ORIVpPRCQ8ETzx47drle2tp1+fzLW4EeKPhTgEAc66HXuFRcZrFuQors5MxZDbpX1CC/4ji7Tdl/GWNeTAFsLjezGo747ui/cAxHsjX3hwFfHFgAsC325Ee/t+V/wAOdGYZiA+oxAAAACV0RVh0ZGF0ZTpjcmVhdGUAMjAyNC0wNi0xNVQxODozODoxMSswMDowMBf693AAAAAldEVYdGRhdGU6bW9kaWZ5ADIwMjQtMDYtMTVUMTg6Mzg6MTErMDA6MDBmp0/MAAAAAElFTkSuQmCC;" vertex="1" parent="1">
          <mxGeometry x="600" y="410" width="60" height="60" as="geometry" />
        </mxCell>
        <mxCell id="qYTeN8mtzP5acfvbm5ag-13" value="Administrateur" style="shape=umlActor;verticalLabelPosition=bottom;verticalAlign=top;html=1;" vertex="1" parent="1">
          <mxGeometry x="590" y="110.00000000000003" width="30" height="60" as="geometry" />
        </mxCell>
        <mxCell id="qYTeN8mtzP5acfvbm5ag-14" value="Partnaire" style="shape=umlActor;verticalLabelPosition=bottom;verticalAlign=top;html=1;" vertex="1" parent="1">
          <mxGeometry x="138.09" y="265" width="30" height="60" as="geometry" />
        </mxCell>
        <mxCell id="qYTeN8mtzP5acfvbm5ag-17" value="Serveur applicatif" style="text;html=1;align=center;verticalAlign=middle;resizable=0;points=[];autosize=1;strokeColor=none;fillColor=none;" vertex="1" parent="1">
          <mxGeometry x="620" y="280" width="120" height="30" as="geometry" />
        </mxCell>
        <mxCell id="qYTeN8mtzP5acfvbm5ag-18" value="Serveur données" style="text;html=1;align=center;verticalAlign=middle;resizable=0;points=[];autosize=1;strokeColor=none;fillColor=none;" vertex="1" parent="1">
          <mxGeometry x="575" y="470" width="110" height="30" as="geometry" />
        </mxCell>
        <mxCell id="qYTeN8mtzP5acfvbm5ag-21" value="https" style="text;html=1;align=center;verticalAlign=middle;resizable=0;points=[];autosize=1;strokeColor=none;fillColor=none;" vertex="1" parent="1">
          <mxGeometry x="487.61" y="570" width="50" height="30" as="geometry" />
        </mxCell>
        <mxCell id="qYTeN8mtzP5acfvbm5ag-22" value="Energie solaire" style="text;html=1;align=center;verticalAlign=middle;resizable=0;points=[];autosize=1;strokeColor=none;fillColor=none;" vertex="1" parent="1">
          <mxGeometry x="205" y="590" width="100" height="30" as="geometry" />
        </mxCell>
        <mxCell id="qYTeN8mtzP5acfvbm5ag-23" value="" style="endArrow=block;startArrow=none;endFill=1;startFill=0;html=1;rounded=0;" edge="1" parent="1" source="qYTeN8mtzP5acfvbm5ag-2" target="qYTeN8mtzP5acfvbm5ag-1">
          <mxGeometry width="160" relative="1" as="geometry">
            <mxPoint x="200" y="190" as="sourcePoint" />
            <mxPoint x="300" y="340" as="targetPoint" />
          </mxGeometry>
        </mxCell>
        <mxCell id="qYTeN8mtzP5acfvbm5ag-34" value="Acheter" style="edgeLabel;html=1;align=center;verticalAlign=middle;resizable=0;points=[];" vertex="1" connectable="0" parent="qYTeN8mtzP5acfvbm5ag-23">
          <mxGeometry x="0.038" relative="1" as="geometry">
            <mxPoint as="offset" />
          </mxGeometry>
        </mxCell>
        <mxCell id="qYTeN8mtzP5acfvbm5ag-24" value="" style="endArrow=block;startArrow=block;endFill=1;startFill=1;html=1;rounded=0;exitX=0.583;exitY=0.694;exitDx=0;exitDy=0;exitPerimeter=0;" edge="1" parent="1" source="qYTeN8mtzP5acfvbm5ag-14" target="qYTeN8mtzP5acfvbm5ag-1">
          <mxGeometry width="160" relative="1" as="geometry">
            <mxPoint x="280" y="172" as="sourcePoint" />
            <mxPoint x="368" y="300" as="targetPoint" />
          </mxGeometry>
        </mxCell>
        <mxCell id="qYTeN8mtzP5acfvbm5ag-33" value="Mettre à jour les produits" style="edgeLabel;html=1;align=center;verticalAlign=middle;resizable=0;points=[];" vertex="1" connectable="0" parent="qYTeN8mtzP5acfvbm5ag-24">
          <mxGeometry x="0.0162" y="1" relative="1" as="geometry">
            <mxPoint as="offset" />
          </mxGeometry>
        </mxCell>
        <mxCell id="qYTeN8mtzP5acfvbm5ag-25" value="" style="endArrow=block;startArrow=none;endFill=1;startFill=0;html=1;rounded=0;" edge="1" parent="1" source="qYTeN8mtzP5acfvbm5ag-7" target="qYTeN8mtzP5acfvbm5ag-1">
          <mxGeometry width="160" relative="1" as="geometry">
            <mxPoint x="157" y="222" as="sourcePoint" />
            <mxPoint x="330" y="322" as="targetPoint" />
          </mxGeometry>
        </mxCell>
        <mxCell id="qYTeN8mtzP5acfvbm5ag-32" value="Récupérer les&lt;div&gt;conversions&lt;/div&gt;" style="edgeLabel;html=1;align=center;verticalAlign=middle;resizable=0;points=[];" vertex="1" connectable="0" parent="qYTeN8mtzP5acfvbm5ag-25">
          <mxGeometry x="-0.0365" relative="1" as="geometry">
            <mxPoint as="offset" />
          </mxGeometry>
        </mxCell>
        <mxCell id="qYTeN8mtzP5acfvbm5ag-26" value="" style="endArrow=block;startArrow=none;endFill=1;startFill=0;html=1;rounded=0;" edge="1" parent="1" source="qYTeN8mtzP5acfvbm5ag-6" target="qYTeN8mtzP5acfvbm5ag-1">
          <mxGeometry width="160" relative="1" as="geometry">
            <mxPoint x="206" y="371" as="sourcePoint" />
            <mxPoint x="330" y="373" as="targetPoint" />
          </mxGeometry>
        </mxCell>
        <mxCell id="qYTeN8mtzP5acfvbm5ag-40" value="Alimenter" style="edgeLabel;html=1;align=center;verticalAlign=middle;resizable=0;points=[];" vertex="1" connectable="0" parent="qYTeN8mtzP5acfvbm5ag-26">
          <mxGeometry x="-0.0345" y="2" relative="1" as="geometry">
            <mxPoint y="1" as="offset" />
          </mxGeometry>
        </mxCell>
        <mxCell id="qYTeN8mtzP5acfvbm5ag-27" value="" style="endArrow=classic;startArrow=none;endFill=1;startFill=0;html=1;rounded=0;" edge="1" parent="1" source="qYTeN8mtzP5acfvbm5ag-5" target="qYTeN8mtzP5acfvbm5ag-1">
          <mxGeometry width="160" relative="1" as="geometry">
            <mxPoint x="197" y="550" as="sourcePoint" />
            <mxPoint x="330" y="446" as="targetPoint" />
          </mxGeometry>
        </mxCell>
        <mxCell id="qYTeN8mtzP5acfvbm5ag-39" value="Sécuriser" style="edgeLabel;html=1;align=center;verticalAlign=middle;resizable=0;points=[];" vertex="1" connectable="0" parent="qYTeN8mtzP5acfvbm5ag-27">
          <mxGeometry x="0.0978" relative="1" as="geometry">
            <mxPoint as="offset" />
          </mxGeometry>
        </mxCell>
        <mxCell id="qYTeN8mtzP5acfvbm5ag-28" value="" style="endArrow=block;startArrow=block;endFill=1;startFill=1;html=1;rounded=0;" edge="1" parent="1" source="qYTeN8mtzP5acfvbm5ag-10" target="qYTeN8mtzP5acfvbm5ag-1">
          <mxGeometry width="160" relative="1" as="geometry">
            <mxPoint x="600" y="511" as="sourcePoint" />
            <mxPoint x="510" y="443" as="targetPoint" />
          </mxGeometry>
        </mxCell>
        <mxCell id="qYTeN8mtzP5acfvbm5ag-38" value="Stocker" style="edgeLabel;html=1;align=center;verticalAlign=middle;resizable=0;points=[];" vertex="1" connectable="0" parent="qYTeN8mtzP5acfvbm5ag-28">
          <mxGeometry x="0.1019" y="2" relative="1" as="geometry">
            <mxPoint as="offset" />
          </mxGeometry>
        </mxCell>
        <mxCell id="qYTeN8mtzP5acfvbm5ag-29" value="" style="endArrow=block;startArrow=block;endFill=1;startFill=1;html=1;rounded=0;" edge="1" parent="1" source="qYTeN8mtzP5acfvbm5ag-9" target="qYTeN8mtzP5acfvbm5ag-1">
          <mxGeometry width="160" relative="1" as="geometry">
            <mxPoint x="640" y="379" as="sourcePoint" />
            <mxPoint x="510" y="377" as="targetPoint" />
          </mxGeometry>
        </mxCell>
        <mxCell id="qYTeN8mtzP5acfvbm5ag-37" value="Faire fonctionner" style="edgeLabel;html=1;align=center;verticalAlign=middle;resizable=0;points=[];" vertex="1" connectable="0" parent="qYTeN8mtzP5acfvbm5ag-29">
          <mxGeometry x="-0.0457" y="2" relative="1" as="geometry">
            <mxPoint as="offset" />
          </mxGeometry>
        </mxCell>
        <mxCell id="qYTeN8mtzP5acfvbm5ag-30" value="" style="endArrow=block;startArrow=block;endFill=1;startFill=1;html=1;rounded=0;" edge="1" parent="1" source="qYTeN8mtzP5acfvbm5ag-13" target="qYTeN8mtzP5acfvbm5ag-1">
          <mxGeometry width="160" relative="1" as="geometry">
            <mxPoint x="660" y="273" as="sourcePoint" />
            <mxPoint x="510" y="337" as="targetPoint" />
          </mxGeometry>
        </mxCell>
        <mxCell id="qYTeN8mtzP5acfvbm5ag-36" value="Gérer le système" style="edgeLabel;html=1;align=center;verticalAlign=middle;resizable=0;points=[];" vertex="1" connectable="0" parent="qYTeN8mtzP5acfvbm5ag-30">
          <mxGeometry x="-0.0884" y="2" relative="1" as="geometry">
            <mxPoint as="offset" />
          </mxGeometry>
        </mxCell>
        <mxCell id="qYTeN8mtzP5acfvbm5ag-31" value="" style="endArrow=block;startArrow=none;endFill=1;startFill=0;html=1;rounded=0;" edge="1" parent="1" source="qYTeN8mtzP5acfvbm5ag-8" target="qYTeN8mtzP5acfvbm5ag-1">
          <mxGeometry width="160" relative="1" as="geometry">
            <mxPoint x="600" y="167" as="sourcePoint" />
            <mxPoint x="485" y="300" as="targetPoint" />
          </mxGeometry>
        </mxCell>
        <mxCell id="qYTeN8mtzP5acfvbm5ag-35" value="Livre" style="edgeLabel;html=1;align=center;verticalAlign=middle;resizable=0;points=[];" vertex="1" connectable="0" parent="qYTeN8mtzP5acfvbm5ag-31">
          <mxGeometry x="0.0259" y="-2" relative="1" as="geometry">
            <mxPoint as="offset" />
          </mxGeometry>
        </mxCell>
      </root>
    </mxGraphModel>
  </diagram>
</mxfile>
